<?xml version="1.0" encoding="utf-8"?>
<!-- Generator: Adobe Illustrator 22.1.0, SVG Export Plug-In . SVG Version: 6.00 Build 0)  -->
<svg version="1.1" id="图层_1" xmlns="http://www.w3.org/2000/svg" xmlns:xlink="http://www.w3.org/1999/xlink" x="0px" y="0px"
	 viewBox="0 0 120 120" style="enable-background:new 0 0 120 120;" xml:space="preserve">
<style type="text/css">
	.st0{fill:#E61C58;}
</style>
<title>画板</title>
<g id="画板">
	<g id="编组-8备份" transform="translate(-44.000000, -22.000000)">
		<g id="编组-7">
			<g id="编组-6备份">
				<g id="编组">
					
						<g id="分组-2-copy-3" transform="translate(82.724856, 82.498237) rotate(25.000000) translate(-82.724856, -82.498237) translate(20.224856, 20.998237)">
						<path id="合并形状" class="st0" d="M101.1,32.6c3.6-0.8,7.2,1.5,7.9,5.2c0,0.1,0.1,0.3,0.1,0.4c0.1,0.5,0.2,1,0.2,1.6
							c0,0.4,0.1,0.6,0.1,0.7c0,0.1,0,0.3,0.1,0.5c0.2,0.8,0.4,1.5,0.8,2.1c0.6,1,1.9,2.3,4,2.9c0.8,0.2,1.8,0.3,3,0.1
							c0.9-0.2,2-0.2,3,0c3.6,0.8,6,4.2,5.2,7.6c-0.2,1.1-0.7,2-1.4,2.8l-9.5-7.4l9.2,7.7c-0.6,0.7-1.3,1.4-2.2,1.8l-0.3,0.1
							c-3.3,1.5-7.1-0.1-8.6-3.5c-0.4-1-0.6-1.9-0.6-2.9c-0.1-1.2-0.3-2.1-0.7-2.9c-1-1.9-2.5-2.9-3.6-3.3c-0.6-0.2-1.4-0.3-2.3-0.3
							c-0.2,0-0.4,0-0.6,0c-0.1,0-0.3,0-0.7,0.1c-1.8,0.4-3.6,0-5.1-1c-1.6-0.9-2.9-2.5-3.3-4.5C95.1,36.9,97.4,33.3,101.1,32.6z"/>
						<path id="合并形状-copy" class="st0" d="M90.9,53.2c-0.9-1.9,0-4.2,2-5c0.1,0,0.1-0.1,0.2-0.1c0.3-0.1,0.5-0.2,0.8-0.3
							h-0.1c0.3-0.1,0.4-0.1,0.5-0.2c0.1,0,0.2-0.1,0.3-0.1c0.4-0.2,0.8-0.4,1.1-0.7c0.5-0.5,1.1-1.3,1.1-2.6c0-0.5-0.1-1.1-0.3-1.7
							c-0.2-0.5-0.4-1.1-0.4-1.7c0-2.1,1.6-3.8,3.6-3.8c0.6,0,1.2,0.2,1.7,0.5l-2.9,6l3.2-6c0.5,0.2,0.9,0.5,1.2,1l0.1,0.2
							c1.2,1.6,0.8,4-0.9,5.2c-0.5,0.3-1,0.6-1.5,0.7c-0.6,0.2-1.2,0.4-1.5,0.7c-0.9,0.8-1.3,1.7-1.4,2.4c-0.1,0.4,0,0.8,0.1,1.3
							c0,0.1,0.1,0.2,0.1,0.3s0.1,0.2,0.1,0.4v0.1v-0.1c0.4,0.9,0.4,2,0,3c-0.3,1-1.1,1.9-2.1,2.4C94.1,55.9,91.8,55.1,90.9,53.2z"
							/>
						<path id="合并形状-copy-2" class="st0" d="M127.1,47.6c2.3,1.4,4.2,3.3,5.5,5.6l0,0c1.4,2.1,2.2,4.6,2.5,7.2
							c0.8,8.8-5.8,16.6-14.8,17.4c-2.5,0.2-5-0.1-7.2-1c-2.7-0.8-5.1-1-7.1-0.7c-5.2,0.8-8.6,3.6-10.4,5.9c-1,1.3-1.9,3-2.6,5.1
							c-0.2,0.6-0.3,1-0.4,1.3s-0.2,0.8-0.4,1.7c-0.8,7.5-6.9,13.7-14.8,14.4c-6.1,0.5-11.7-2.3-14.9-7h-0.1
							c-3.3-5-3.7-11.8-0.3-17.4c4.1-6.8,12.3-9.6,19.4-7c0.8,0.2,1.4,0.4,1.7,0.4c0.3,0.1,0.8,0.1,1.4,0.2c2.1,0.3,4,0.3,5.7-0.1
							c2.9-0.6,6.9-2.4,9.9-6.7c1.2-1.7,2-3.9,2.5-6.7c0.2-2.4,1-4.7,2.3-6.9C109.6,45.6,119.5,43,127.1,47.6z"/>
						<path id="合并形状_1_" class="st0" d="M57.6,10.4c2.9-1.7,6-2.6,9.2-2.8l0,0c3.1-0.3,6.2,0.2,9.3,1.5
							c10,4.3,14.7,15.9,10.4,26c-1.2,2.9-3,5.3-5.2,7.2c-2.4,2.5-4,4.9-4.9,7.3c-2.1,6-1,11.3,0.5,14.6c0.8,1.9,2.2,3.8,4,5.7
							c0.5,0.5,0.9,0.9,1.2,1.2c0.2,0.2,0.8,0.7,1.6,1.3c7.7,5.2,10.9,15.3,7.1,24.2c-3.1,7.3-10.1,11.8-17.5,12.1l0,0l0,0
							c-7.1,0.4-14.2-3.1-18.2-9.6c-5-8.3-3.2-18.8,3.7-25c0.7-0.8,1.2-1.3,1.4-1.5c0.3-0.3,0.6-0.8,1-1.3c1.6-2.1,2.6-4.2,3.2-6.2
							c1-3.5,1.4-8.9-1.6-14.5c-1.2-2.2-3.1-4.4-5.8-6.5c-2.4-1.6-4.6-3.8-6.2-6.4C45.3,28.2,48.3,16,57.6,10.4z"/>
					</g>
				</g>
				<ellipse id="椭圆形" class="st0" cx="105" cy="94.9" rx="7.5" ry="7.5"/>
			</g>
			<path id="路径-3" class="st0" d="M95.9,98c1.6,4.7,5.1,7.4,10.7,8.1c0.5,0.1,1.5,1.2,1.9,1.3c2.1,0.4-2.7,1.9-14.6,4.6l-5.9-6
				l1.9-7.4L95.9,98z"/>
		</g>
	</g>
</g>
</svg>
