<?xml version="1.0" encoding="utf-8"?>
<!-- Generator: Adobe Illustrator 22.1.0, SVG Export Plug-In . SVG Version: 6.00 Build 0)  -->
<svg version="1.1" id="图层_1" xmlns="http://www.w3.org/2000/svg" xmlns:xlink="http://www.w3.org/1999/xlink" x="0px" y="0px"
	 viewBox="0 0 120 120" style="enable-background:new 0 0 120 120;" xml:space="preserve">
<style type="text/css">
	.st0{fill:#FFFFFF;}
</style>
<g id="画板">
	<g id="编组-8备份" transform="translate(-44.000000, -22.000000)">
		<g id="编组-7">
			<g id="编组-6备份">
				<g id="编组">
					
						<g id="分组-2-copy-3" transform="translate(82.724856, 82.498237) rotate(25.000000) translate(-82.724856, -82.498237) translate(20.224856, 20.998237)">
						<path id="合并形状" class="st0" d="M103.3,28.3c4.3-1,8.6,1.8,9.4,6.2c0,0.1,0.1,0.4,0.1,0.5c0.1,0.6,0.2,1.2,0.2,1.9
							c0,0.5,0.1,0.7,0.1,0.8c0,0.1,0,0.4,0.1,0.6c0.2,1,0.5,1.8,1,2.5c0.7,1.2,2.3,2.7,4.8,3.5c1,0.2,2.1,0.4,3.6,0.1
							c1.1-0.2,2.4-0.2,3.6,0c4.3,1,7.1,5,6.2,9.1c-0.2,1.3-0.8,2.4-1.7,3.3L119.4,48l11,9.2c-0.7,0.8-1.5,1.7-2.6,2.1l-0.4,0.1
							c-3.9,1.8-8.5-0.1-10.2-4.2c-0.5-1.2-0.7-2.3-0.7-3.5c-0.1-1.4-0.4-2.5-0.8-3.5c-1.2-2.3-3-3.5-4.3-3.9
							c-0.7-0.2-1.7-0.4-2.7-0.4c-0.2,0-0.5,0-0.7,0c-0.1,0-0.4,0-0.8,0.1c-2.1,0.5-4.3,0-6.1-1.2c-1.9-1.1-3.5-3-3.9-5.4
							C96.2,33.4,98.9,29.1,103.3,28.3z"/>
						<path id="合并形状-copy" class="st0" d="M91.2,52.9c-1.1-2.3,0-5,2.4-6c0.1,0,0.1-0.1,0.2-0.1c0.4-0.1,0.6-0.2,1-0.4h-0.1
							c0.4-0.1,0.5-0.1,0.6-0.2c0.1,0,0.2-0.1,0.4-0.1c0.5-0.2,1-0.5,1.3-0.8c0.6-0.6,1.3-1.5,1.3-3.1c0-0.6-0.1-1.3-0.4-2
							c-0.2-0.6-0.5-1.3-0.5-2c0-2.5,1.9-4.5,4.3-4.5c0.7,0,1.4,0.2,2,0.6l-3.5,7.1l3.8-7.1c0.6,0.2,1.1,0.6,1.4,1.2l0.1,0.2
							c1.4,1.9,1,4.8-1.1,6.2c-0.6,0.4-1.2,0.7-1.8,0.8c-0.7,0.2-1.4,0.5-1.8,0.8c-1.1,1-1.5,2-1.7,2.9c-0.1,0.5,0,1,0.1,1.5
							c0,0.1,0.1,0.2,0.1,0.4s0.1,0.2,0.1,0.5v0.1v-0.1c0.5,1.1,0.5,2.4,0,3.6c-0.4,1.2-1.3,2.3-2.5,2.9
							C95,56.1,92.2,55.1,91.2,52.9z"/>
						<path id="合并形状-copy-2" class="st0" d="M134.3,46.2c2.7,1.7,5,3.9,6.6,6.7l0,0c1.7,2.5,2.6,5.5,3,8.6
							c1,10.5-6.9,19.8-17.6,20.7c-3,0.2-6-0.1-8.6-1.2c-3.2-1-6.1-1.2-8.5-0.8c-6.2,1-10.2,4.3-12.4,7c-1.2,1.5-2.3,3.6-3.1,6.1
							c-0.2,0.7-0.4,1.2-0.5,1.5c-0.1,0.4-0.2,1-0.5,2c-1,8.9-8.2,16.3-17.6,17.2c-7.3,0.6-13.9-2.7-17.8-8.3h-0.1
							c-3.9-6-4.4-14.1-0.4-20.7c4.9-8.1,14.7-11.4,23.1-8.3c1,0.2,1.7,0.5,2,0.5c0.4,0.1,1,0.1,1.7,0.2c2.5,0.4,4.8,0.4,6.8-0.1
							c3.5-0.7,8.2-2.9,11.8-8c1.4-2,2.4-4.6,3-8c0.2-2.9,1.2-5.6,2.7-8.2C113.4,43.8,125.2,40.7,134.3,46.2z"/>
						<path id="合并形状_1_" class="st0" d="M51.5,1.9c3.5-2,7.1-3.1,11-3.3l0,0c3.7-0.4,7.4,0.2,11.1,1.8
							c11.9,5.1,17.5,18.9,12.4,31c-1.4,3.5-3.6,6.3-6.2,8.6c-2.9,3-4.8,5.8-5.8,8.7C71.4,55.7,72.7,62,74.5,66
							c1,2.3,2.6,4.5,4.8,6.8c0.6,0.6,1.1,1.1,1.4,1.4c0.2,0.2,1,0.8,1.9,1.5c9.2,6.2,13,18.2,8.5,28.8c-3.7,8.7-12,14.1-20.9,14.4
							l0,0l0,0c-8.5,0.5-16.9-3.7-21.7-11.4c-6-9.9-3.8-22.4,4.4-29.8c0.8-1,1.4-1.5,1.7-1.8c0.4-0.4,0.7-1,1.2-1.5
							c1.9-2.5,3.1-5,3.8-7.4c1.2-4.2,1.7-10.6-1.9-17.3c-1.4-2.6-3.7-5.2-6.9-7.7c-2.9-1.9-5.5-4.5-7.4-7.6
							C36.8,23.1,40.4,8.5,51.5,1.9z"/>
					</g>
				</g>
				<ellipse id="椭圆形" class="st0" cx="104" cy="96.2" rx="8.9" ry="8.9"/>
			</g>
			<path id="路径-3" class="st0" d="M93.2,99.9c1.9,5.6,6.1,8.8,12.8,9.7c0.6,0.1,1.8,1.4,2.3,1.5c2.5,0.5-3.2,2.3-17.4,5.5
				l-7-7.1l2.3-8.8L93.2,99.9z"/>
		</g>
	</g>
</g>
<title>画板</title>
</svg>
