<?xml version="1.0" encoding="UTF-8"?>
<svg width="340px" height="120px" viewBox="0 0 340 120" version="1.1" xmlns="http://www.w3.org/2000/svg" xmlns:xlink="http://www.w3.org/1999/xlink">
    <title>画板</title>
    <g id="画板" stroke="none" stroke-width="1" fill="none" fill-rule="evenodd">
        <g id="编组-8备份" transform="translate(-44.000000, -22.000000)">
            <g id="编组-2" transform="translate(160.000000, 47.000000)" fill="#e61c58">
                <g id="编组-3">
                    <g id="编组-5">
                        <g id="编组-4">
                            <path d="M123.782369,63.8 C126.58494,63.8 128.808999,63.3438957 130.454545,62.4316872 C132.151515,61.6859434 133,60.5105605 133,58.9055385 C133,56.4980056 131.013601,56.0176549 130.454545,56.2578303 L129.900148,56.4973372 C128.992665,56.8801939 127.35629,57.5057613 126.019284,57.5057613 C123.808081,57.5057613 122.226814,56.8932785 121.275482,55.6683128 C120.324151,54.4433471 119.848485,52.4104252 119.848485,49.5695473 L119.848485,25.9563786 L127.286869,25.9563786 C129.036328,25.9563786 130.454545,24.5386136 130.454545,22.7897119 C130.454545,21.0408102 129.036328,19.6230453 127.286869,19.6230453 L119.848485,19.6230453 L119.848485,10.5591315 C119.848485,8.4830205 118.164928,6.8 116.088154,6.8 C114.011381,6.8 112.327824,8.4830205 112.327824,10.5591315 L112.327824,19.6230453 L108.167677,19.6230453 C106.418217,19.6230453 105,21.0408102 105,22.7897119 C105,24.5386136 106.418217,25.9563786 108.167677,25.9563786 L112.327824,25.9563786 L112.327824,50.9378601 C112.327824,59.51262 116.146006,63.8 123.782369,63.8 Z" id="路径" fill-rule="nonzero"></path>
                            <path d="M3.90825611,64 C6.06672635,64 7.81651221,62.2502141 7.81651221,60.0917439 L7.81651221,11.2426164 L7.81651221,11.2426164 L39.5910677,59.9426187 C41.2425852,62.473855 44.0605824,64 47.0829436,64 C49.758552,64 51.9275611,61.8309908 51.9275611,59.1553824 L51.9275611,5.01477127 C51.9275611,2.79747432 50.1300868,1 47.9127899,1 C45.6954929,1 43.8980186,2.79747432 43.8980186,5.01477127 L43.8980186,54.9706469 L43.8980186,54.9706469 L12.8838718,5.31945384 C11.2054804,2.63248219 8.26097611,1 5.09288296,1 C2.28016137,1 -3.44459049e-16,3.28016137 0,6.09288296 L0,60.0917439 C1.596604e-15,62.2502141 1.74978586,64 3.90825611,64 Z" id="路径备份"></path>
                            <path d="M162.5,63.8 C164.879572,63.8 166.783229,62.925 167.814377,60.2204545 L188.762043,5.49318182 C188.920681,5.09545455 189,4.69772727 189,4.3 C189,2.70909091 187.730895,1.51590909 186.065195,1.03863636 C185.589281,0.959090909 185.113366,0.879545455 184.637452,0.879545455 C183.051071,0.879545455 181.781966,1.59545455 181.226733,3.18636364 L165.355486,46.6977273 C164.324338,49.7204545 163.37251,53.3 162.5,56.5613636 C161.62749,53.3795455 160.754981,49.7204545 159.723833,46.7772727 L143.773267,3.10681818 C143.218034,1.51590909 141.86961,0.8 140.362548,0.8 C139.886634,0.8 139.410719,0.879545455 138.934805,1.03863636 C137.269105,1.43636364 136,2.78863636 136,4.37954545 C136,4.77727273 136.079319,5.25454545 136.237957,5.65227273 L157.106304,60.1409091 C158.137452,62.925 160.041109,63.8 162.5,63.8 Z" id="V" fill-rule="nonzero"></path>
                        </g>
                    </g>
                    <g id="编组-2备份-2" transform="translate(173.000000, 33.000000)">
                        <path d="M25.3188533,8.3587271 C26.4868126,8.3587271 27.4432455,9.26437917 27.5242057,10.411737 L27.5297569,10.5696307 L27.5297569,27.9927004 C27.5297569,31.2315101 26.7621377,33.7585024 24.9324244,35.5269827 C23.8594712,36.5379519 21.8587986,37.5337531 18.8436913,37.9903808 C18.780176,38 18.6918728,38.0024048 18.5787819,37.9975952 L18.571,37.997 L18.5,38 C17.7203039,38 17.0795513,37.4332923 17.0068666,36.6665192 L17,36.5204943 C17,35.8332949 17.4366802,35.2525735 18.060025,35.0642655 L18,34.622541 C21.3132647,33.9319719 23.0146709,31.8212033 23.1042186,28.2902352 L23.1079497,27.9927004 L23.1079497,10.5696307 C23.1079497,9.34858236 24.097805,8.3587271 25.3188533,8.3587271 Z M48.2774391,8.5848531 L48.491523,8.68591196 C49.2532201,8.89611882 49.9311951,9.80521982 49.815843,10.573103 C49.6848484,11.4451173 49.0547535,11.9892818 48.1775636,11.9892818 C47.9998538,11.9892818 47.8289607,11.9531017 47.669416,11.8881213 C46.8022404,11.4141611 45.3218851,10.8504807 43.6085881,10.9401003 C41.6287782,11.0436606 40.6219699,12.2277046 40.6950366,13.6192507 C40.770078,15.0484063 41.7594304,15.7131954 44.3676077,16.6704332 C47.9053416,17.8807488 49.8315971,19.6656224 49.989579,22.6743709 C50.198905,26.6609627 47.2393812,29.1916673 42.4802229,29.4406104 C40.4018704,29.5493254 38.3984562,29.153025 36.9592801,28.4776451 L36.6961662,28.347796 C35.9538762,28.0567209 35.0333779,27.1768016 35.4621966,26.0414347 C35.9804646,24.6692366 37.5237295,25.0869878 37.7024312,25.1509133 C37.7965874,25.1845951 37.889039,25.2291543 37.978247,25.2829081 C39.154371,25.7626317 40.5970953,26.2958253 42.3865388,26.2022227 C44.7470814,26.0787469 45.8300361,24.8907199 45.7470956,23.3111269 C45.6641551,21.7315339 44.7430502,20.9123243 42.1749209,19.9907043 C38.3667246,18.7191108 36.6209616,16.7362327 36.494576,14.3292339 C36.3128968,10.8691731 39.0242333,7.97432422 43.4407323,7.74330498 C45.37574,7.64189552 47.1009253,8.05291956 48.2774391,8.5848531 Z M25.2387648,0 C26.8174316,0 27.8185374,1.11449695 27.8185374,2.61330318 C27.8185374,4.03524756 26.8174316,5.18817544 25.2002608,5.18817544 C23.660098,5.18817544 22.6204882,4.03524756 22.6204882,2.61330318 C22.6204882,1.11449695 23.6986021,0 25.2387648,0 Z" id="形状结合" fill-rule="nonzero"></path>
                        <ellipse id="椭圆形备份-8" cx="2.5" cy="29" rx="2.5" ry="3"></ellipse>
                    </g>
                </g>
                <path d="M79.2067416,63.2 C87.9370787,63.2 92.8426966,58.8830189 96.0853933,52.3245283 C96.3348315,51.7433962 96.4179775,51.245283 96.4179775,50.7471698 C96.4179775,49.0037736 94.505618,47.9245283 92.9258427,47.9245283 C91.8449438,47.9245283 90.847191,48.5886792 90.2651685,50 C88.0202247,55.3132075 84.7775281,58.1358491 79.2067416,58.1358491 C72.0561798,58.1358491 66.6516854,53.0716981 66.152809,42.5283019 L92.094382,42.5283019 C95.8359551,42.5283019 97,40.8679245 97,37.2150943 C97,30.490566 91.7617978,19.2 79.2898876,19.2 C66.9842697,19.2 60,28.7471698 60,41.1169811 C60,53.6528302 66.8179775,63.2 79.2067416,63.2 Z M89.7331081,37.2 L66,37.2 C67.1824324,28.83125 72.25,24.2 79.1756757,24.2 C85.847973,24.2 89.4797297,28.75 90.8310811,34.6 C90.9155405,34.925 91,35.4125 91,35.81875 C91,36.63125 90.5777027,37.2 89.7331081,37.2 Z" id="e" stroke="#e61c58" fill-rule="nonzero"></path>
            </g>
            <g id="编组-7" fill="#e61c58">
                <g id="编组-6备份">
                    <g id="编组" fill-rule="nonzero">
                        <g id="分组-2-copy-3" transform="translate(82.724856, 82.498237) rotate(25.000000) translate(-82.724856, -82.498237) translate(20.224856, 20.998237)">
                            <path d="M85.1600435,32.0749606 C88.802765,31.4938507 92.2234844,33.9970849 92.800439,37.6660942 C92.8206697,37.7947491 92.8371353,37.9231291 92.8499177,38.0511203 C92.9495471,38.5593671 92.9862676,39.0825414 92.9534583,39.6101597 C92.9643432,39.9616511 92.9749582,40.1918317 92.9839097,40.3020255 C92.9944753,40.4320903 93.0158679,40.6144086 93.0480875,40.8489804 C93.1795792,41.6967378 93.4119623,42.4191413 93.7452367,43.016191 C94.3244922,44.0539073 95.5159513,45.4155747 97.5646183,46.0879469 C98.3772347,46.3546475 99.3641031,46.4353745 100.525224,46.3301279 C101.484034,46.1660726 102.498785,46.2033337 103.508736,46.4739493 C107.09446,47.4347411 109.261835,50.9732032 108.349703,54.3773256 C108.067668,55.4298953 107.524233,56.3463764 106.802012,57.0818906 L97.8440042,49.3457251 L106.63029,57.4700121 C106.029295,58.1864544 105.266608,58.775757 104.369133,59.1747152 L104.065019,59.3005647 C100.732992,60.5796101 96.9602551,58.8248808 95.6383757,55.3812672 C95.2653618,54.4095327 95.1273643,53.4071527 95.1976181,52.4384745 C95.1877108,51.2796378 95.0086136,50.3132857 94.6603268,49.5394181 C93.7809824,47.5855805 92.2936883,46.5565004 91.1928611,46.097695 C90.5595006,45.8337215 89.8101209,45.6834755 88.9447221,45.6469571 C88.7056822,45.6409745 88.5202534,45.6399378 88.3884356,45.6438467 C88.2769321,45.6471533 88.0450066,45.6620318 87.6910254,45.6899222 C85.9106604,45.9968002 84.1024578,45.5130989 82.6831831,44.4326591 C81.0927879,43.4380658 79.9248019,41.7789473 79.6089713,39.7704957 C79.0320252,36.1014851 81.5173233,32.6560788 85.1600435,32.0749606 Z" id="合并形状" transform="translate(94.041928, 45.854871) rotate(-3.000000) translate(-94.041928, -45.854871) "></path>
                            <path d="M75.545406,38.3514711 C77.6247429,38.0197621 79.5773566,39.4486573 79.9066936,41.5429998 C79.9188324,41.6201951 79.9285965,41.6972171 79.9360402,41.7739901 C79.9922717,42.0601905 80.0124813,42.3546706 79.9941095,42.6516236 L79.9893623,42.538652 C79.9980392,42.8037348 80.0053932,42.973398 80.0114243,43.0476416 C80.0174554,43.1218852 80.0296667,43.2259561 80.0480583,43.3598543 C80.1231164,43.8437711 80.2557653,44.2561334 80.4460049,44.5969413 C80.7766555,45.1892904 81.4567641,45.9665573 82.626184,46.3503607 C83.0931433,46.5036167 83.6609037,46.5492908 84.3294654,46.4873831 C84.8728191,46.3953086 85.44736,46.4174732 86.019205,46.5706986 C88.0660076,47.1191377 89.3031883,49.1389623 88.7825253,51.0821032 C88.6214546,51.6832271 88.3110244,52.2065923 87.8984625,52.6265435 L82.8157915,48.2361852 L87.8016692,52.8467292 C87.4680659,53.2446298 87.0471188,53.5738786 86.5529627,53.8012666 L86.3367406,53.8923854 C84.4347531,54.62249 82.2811998,53.6208556 81.5266447,51.6551723 C81.3148965,51.1035495 81.2358232,50.5346262 81.2751239,49.9845741 C81.270342,49.3189971 81.1680856,48.7643153 80.9683549,48.3205285 C80.4664077,47.2052391 79.6174306,46.6178197 78.9890565,46.3559244 C78.6275217,46.2052431 78.1997608,46.1194797 77.7057739,46.0986343 C77.5693252,46.0952193 77.4634788,46.0946275 77.3882345,46.0968588 C77.325531,46.0987183 77.1961138,46.1069885 76.9999831,46.1216697 L76.8742989,46.1312476 L76.9856424,46.1239317 C75.9680241,46.297996 74.9348265,46.0197865 74.1248646,45.4003781 C73.2202275,44.8327633 72.5565525,43.8876769 72.3767451,42.7442335 C72.047413,40.6498902 73.4660699,38.6831848 75.545406,38.3514711 Z" id="合并形状-copy" transform="translate(80.615363, 46.217317) rotate(-105.000000) translate(-80.615363, -46.217317) "></path>
                            <path d="M92.1873084,36.2857068 C94.9285427,36.2857068 97.509282,36.9827174 99.7666687,38.2115466 L99.7404165,38.2626378 C101.991679,39.3688206 104.009833,41.0201506 105.582145,43.1842517 C110.794465,50.3583957 109.133321,60.451028 101.871876,65.7267769 C99.8179115,67.2190695 97.5358777,68.1661235 95.1999685,68.5930237 C92.4764875,69.3290333 90.3169814,70.349967 88.7214503,71.6558247 C84.6865442,74.9581817 83.235179,79.1443494 82.8760947,82.0565127 C82.6694956,83.7320247 82.807764,85.6147876 83.2908997,87.7048015 C83.4340429,88.2795795 83.5535924,88.7232321 83.649548,89.0357593 C83.7299765,89.2977147 83.9150247,89.83517 84.2054241,90.6484817 C87.4137906,97.4956659 85.3702455,105.919342 78.9533753,110.581471 C74.0014505,114.179255 67.7238752,114.607845 62.5785598,112.241313 L62.5517729,112.2952 C57.1001308,109.693255 53.3263033,104.071193 53.3263033,97.5550716 C53.3263033,89.6081734 58.9393545,82.9910659 66.3633932,81.5603131 C67.1908674,81.3167898 67.7332856,81.1505772 67.9920945,81.0616163 C68.3012362,80.9553544 68.7302902,80.7910014 69.2792564,80.5685571 C71.2534585,79.7294205 72.8574022,78.7328138 74.0910875,77.5787368 C76.2353233,75.5728661 78.7680988,71.9315137 79.068007,66.7166693 C79.1864762,64.6567095 78.7442962,62.3080386 77.7414667,59.6706565 C76.7123621,57.5234566 76.1360237,55.1135368 76.1360237,52.5670764 C76.1360237,43.5751243 83.3224287,36.2857068 92.1873084,36.2857068 Z" id="合并形状-copy-2" transform="translate(80.973129, 75.001264) rotate(-329.000000) translate(-80.973129, -75.001264) "></path>
                            <path d="M67.417365,10.7508206 C70.7853275,10.7508206 73.9561038,11.6011681 76.7296074,13.1003328 L76.716899,13.1241464 C79.4815423,14.4869934 81.9618626,16.5197804 83.8960861,19.1820105 C90.2981287,27.9936662 88.2931996,40.36426 79.4179516,46.8125051 C76.9031651,48.6396044 74.1066186,49.7951759 71.2431969,50.3118324 C67.9176838,51.2062477 65.2814787,52.4506306 63.3345817,54.0449811 C58.4040073,58.0827209 56.6390359,63.2115507 56.207724,66.7813485 C55.9595688,68.8352303 56.1342335,71.1442236 56.731718,73.7083284 C56.9086134,74.4135163 57.0562478,74.957854 57.1746211,75.3413414 C57.2735767,75.661922 57.5007246,76.3188219 57.8567348,77.3138898 C61.8087101,85.7200899 59.3315779,96.0470236 51.4865774,101.74675 C45.0547916,106.419716 36.7799421,106.700049 30.2745895,103.146616 L30.2745895,103.146616 L30.2852009,103.124505 C23.9773755,99.8109051 19.6709188,93.1624956 19.6709188,85.5010003 C19.6709188,75.8040463 26.5695619,67.729985 35.6932334,65.9861596 C36.7075178,65.6892918 37.3724751,65.4869422 37.6899949,65.3785664 C38.0698209,65.2489242 38.5969767,65.0484092 39.2714622,64.7770215 C41.6970591,63.7532537 43.6677392,62.5373681 45.1835026,61.129365 C47.8180109,58.6821518 50.9298972,54.2396095 51.2983784,47.877367 C51.4438776,45.3651586 50.9010821,42.500994 49.6699917,39.2848732 C48.4048985,36.6646333 47.6960068,33.7229517 47.6960068,30.6145047 C47.6960068,19.6440949 56.5255596,10.7508206 67.417365,10.7508206 Z" id="合并形状" transform="translate(53.656518, 58.157325) rotate(-31.000000) translate(-53.656518, -58.157325) "></path>
                        </g>
                    </g>
                    <ellipse id="椭圆形" cx="89.9612903" cy="87.8571429" rx="7.49677419" ry="7.5"></ellipse>
                </g>
                <path d="M80.8919597,91 C82.4504069,95.7080673 86.028993,98.4111417 91.627718,99.1092233 C92.1696068,99.1767892 93.1576539,100.323915 93.5097519,100.391553 C95.6502528,100.802744 90.7814295,102.338893 78.903282,105 L73,98.9517604 L74.8721883,91.5082752 L80.8919597,91 Z" id="路径-3"></path>
            </g>
        </g>
    </g>
</svg>