<?xml version="1.0" encoding="utf-8"?>
<!-- Generator: Adobe Illustrator 22.1.0, SVG Export Plug-In . SVG Version: 6.00 Build 0)  -->
<svg version="1.1" id="图层_1" xmlns="http://www.w3.org/2000/svg" xmlns:xlink="http://www.w3.org/1999/xlink" x="0px" y="0px"
	 viewBox="0 0 120 120" style="enable-background:new 0 0 120 120;" xml:space="preserve">
<style type="text/css">
	.st0{fill:#6355A1;}
	.st1{fill:#36A0DA;}
	.st2{fill:#528ECB;}
</style>
<title>见微 copy 5</title>
<desc>Created with Sketch.</desc>
<g id="分组-copy-14_1_" transform="translate(753.000000, 166.000000)">
	<path id="合并形状-copy-3_1_" class="st0" d="M-734.6-120.7c0-0.3,0-0.6,0-1c0-14.3,11.6-25.8,25.9-25.8c0.5,0,1.8,0,3.5,0
		c0.4,0,0.8,0,1.2,0h43.7c4.2,0,7.5,3.4,7.5,7.5s-3.3,7.4-7.3,7.5c-4.4,0.6-16,1.1-16.1,1.1c-24.6,1.9-39.8,11.2-43.2,34.1
		c0,0.2-0.1,0.5-0.2,0.7c-0.8,3.3-3.8,5.7-7.4,5.7c-4.2,0-7.6-3.4-7.6-7.6L-734.6-120.7C-734.6-120.7-734.6-120.7-734.6-120.7z"/>
	<path id="合并形状-copy-4_1_" class="st1" d="M-651.5-91.2c0,0.3,0,0.6,0,1c0,14.3-11.6,25.8-25.9,25.8c-0.5,0-1.8,0-3.5,0
		c-0.4,0-0.8,0-1.2,0h-43.7c-4.2,0-7.5-3.4-7.5-7.5s3.3-7.4,7.3-7.5c4.4-0.6,16-1.1,16.1-1.1c24.6-1.9,39.8-11.2,43.2-34.1
		c0-0.2,0.1-0.5,0.2-0.7c0.8-3.3,3.8-5.7,7.4-5.7c4.2,0,7.6,3.4,7.6,7.6L-651.5-91.2C-651.4-91.3-651.4-91.3-651.5-91.2z"/>
	<circle id="椭圆形-copy-5_1_" class="st2" cx="-693" cy="-106.1" r="9.9"/>
</g>
</svg>
