<?xml version="1.0" encoding="utf-8"?>
<!-- Generator: Adobe Illustrator 21.0.0, SVG Export Plug-In . SVG Version: 6.00 Build 0)  -->
<svg version="1.1" id="图层_1" xmlns="http://www.w3.org/2000/svg" xmlns:xlink="http://www.w3.org/1999/xlink" x="0px" y="0px"
	 viewBox="0 0 387.5 110.5" style="enable-background:new 0 0 387.5 110.5;" xml:space="preserve">
<style type="text/css">
	.st0{font-family:'ArialMT';}
	.st1{font-size:12px;}
	.st2{font-size:11px;}
	.st3{fill:#0071BC;}
	.st4{fill:none;stroke:#0071BC;stroke-width:8;stroke-miterlimit:10;}
	.st5{fill:none;stroke:#000000;stroke-width:0.5;stroke-miterlimit:10;}
</style>
<text transform="matrix(1 0 0 1 149.9216 59.1625)" class="st0 st1">strokeWidth</text>
<text transform="matrix(1 0 0 1 243.371 24.369)" class="st0 st2">strokeColor: {</text>
<text transform="matrix(1 0 0 1 263.371 37.569)" class="st0 st2">r: 0,</text>
<text transform="matrix(1 0 0 1 263.371 50.769)" class="st0 st2">g: 0.44,</text>
<text transform="matrix(1 0 0 1 263.371 63.969)" class="st0 st2">b: 0.74,</text>
<text transform="matrix(1 0 0 1 263.371 77.169)" class="st0 st2">a: 1</text>
<text transform="matrix(1 0 0 1 243.371 90.369)" class="st0 st2">}</text>
<rect x="252.7" y="81.1" class="st3" width="12" height="12"/>
<line class="st4" x1="66.8" y1="55.6" x2="136.9" y2="55.6"/>
<line class="st5" x1="138.7" y1="51.7" x2="146.7" y2="51.7"/>
<line class="st5" x1="138.7" y1="60" x2="146.7" y2="60"/>
<g>
	<g>
		<line class="st5" x1="142.7" y1="53.3" x2="142.7" y2="58"/>
		<g>
			<polygon points="141.5,53.7 142.7,51.5 144,53.7 			"/>
		</g>
		<g>
			<polygon points="141.5,57.6 142.7,59.8 144,57.6 			"/>
		</g>
	</g>
</g>
</svg>
