<?xml version="1.0" encoding="utf-8"?>
<!-- Generator: Adobe Illustrator 21.0.0, SVG Export Plug-In . SVG Version: 6.00 Build 0)  -->
<svg version="1.1" id="图层_1" xmlns="http://www.w3.org/2000/svg" xmlns:xlink="http://www.w3.org/1999/xlink" x="0px" y="0px"
	 viewBox="0 0 387.5 110.5" style="enable-background:new 0 0 387.5 110.5;" xml:space="preserve">
<style type="text/css">
	.st0{fill:#FBB03B;}
	.st1{fill:#0071BC;}
	.st2{fill:none;stroke:#000000;stroke-width:0.5;stroke-miterlimit:10;}
	.st3{fill:none;}
	.st4{font-family:'ArialMT';}
	.st5{font-size:12px;}
	.st6{font-size:11px;}
</style>
<g>
	<circle class="st0" cx="66.6" cy="57.6" r="34.3"/>
	<path class="st1" d="M66.6,29.6c15.4,0,28,12.5,28,28s-12.5,28-28,28s-28-12.5-28-28S51.2,29.6,66.6,29.6 M66.6,17
		C44.2,17,26,35.2,26,57.6s18.2,40.6,40.6,40.6s40.6-18.2,40.6-40.6S89,17,66.6,17L66.6,17z"/>
</g>
<g>
	<g>
		<line class="st2" x1="66.9" y1="54.5" x2="66.9" y2="60.7"/>
	</g>
	<g>
		<line class="st2" x1="101.4" y1="54.5" x2="101.4" y2="60.7"/>
	</g>
	<g>
		<g>
			<line class="st2" x1="70.5" y1="57.6" x2="97.5" y2="57.6"/>
			<g>
				<polygon points="71.4,60.3 66.7,57.6 71.4,54.9 				"/>
			</g>
			<g>
				<polygon points="96.7,60.3 101.4,57.6 96.7,54.9 				"/>
			</g>
		</g>
	</g>
</g>
<rect x="91.3" y="62.8" class="st3" width="42" height="12.3"/>
<text transform="matrix(1 0 0 1 108.957 60.697)" class="st4 st5">radius</text>
<g>
	<g>
		<line class="st2" x1="93.4" y1="27.2" x2="88.6" y2="23.4"/>
	</g>
	<g>
		<line class="st2" x1="85.5" y1="37.3" x2="80.7" y2="33.4"/>
	</g>
	<g>
		<g>
			<line class="st2" x1="88.7" y1="28.3" x2="85.5" y2="32.3"/>
			<g>
				<polygon points="86.1,27.2 91.1,25.3 90.3,30.6 				"/>
			</g>
			<g>
				<polygon points="83.9,30 83.1,35.4 88.1,33.3 				"/>
			</g>
		</g>
	</g>
</g>
<text transform="matrix(1 0 0 1 101.3796 32.3158)" class="st4 st5">strokeWidth</text>
<text transform="matrix(1 0 0 1 187.7085 23.2084)" class="st4 st6">fill: {</text>
<text transform="matrix(1 0 0 1 207.7085 36.4084)" class="st4 st6">r: 0.98,</text>
<text transform="matrix(1 0 0 1 207.7085 49.6084)" class="st4 st6">g: 0.69,</text>
<text transform="matrix(1 0 0 1 207.7085 62.8084)" class="st4 st6">b: 0.23,</text>
<text transform="matrix(1 0 0 1 207.7085 76.0084)" class="st4 st6">a: 1</text>
<text transform="matrix(1 0 0 1 187.7085 89.2084)" class="st4 st6">}</text>
<rect x="197.1" y="79.9" class="st0" width="12" height="12"/>
<text transform="matrix(1 0 0 1 280.542 23.2844)" class="st4 st6">strokeColor: {</text>
<text transform="matrix(1 0 0 1 300.542 36.4844)" class="st4 st6">r: 0,</text>
<text transform="matrix(1 0 0 1 300.542 49.6844)" class="st4 st6">g: 0.44,</text>
<text transform="matrix(1 0 0 1 300.542 62.8844)" class="st4 st6">b: 0.74,</text>
<text transform="matrix(1 0 0 1 300.542 76.0844)" class="st4 st6">a: 1</text>
<text transform="matrix(1 0 0 1 280.542 89.2844)" class="st4 st6">}</text>
<rect x="289.9" y="80" class="st1" width="12" height="12"/>
</svg>
