<?xml version="1.0" encoding="utf-8"?>
<!-- Generator: Adobe Illustrator 22.1.0, SVG Export Plug-In . SVG Version: 6.00 Build 0)  -->
<svg version="1.1" id="图层_1" xmlns="http://www.w3.org/2000/svg" xmlns:xlink="http://www.w3.org/1999/xlink" x="0px" y="0px"
	 viewBox="0 0 340 120" style="enable-background:new 0 0 340 120;" xml:space="preserve">
<style type="text/css">
	.st0{fill:#E61C58;}
	.st1{fill:#E61C58;stroke:#E61C58;}
</style>
<title>画板</title>
<g id="画板">
	<g id="编组-8备份" transform="translate(-44.000000, -22.000000)">
		<g id="编组-2" transform="translate(160.000000, 47.000000)">
			<g id="编组-3">
				<g id="编组-5">
					<g id="编组-4">
						<path id="路径" class="st0" d="M123.8,63.8c2.8,0,5-0.5,6.7-1.4c1.7-0.7,2.5-1.9,2.5-3.5c0-2.4-2-2.9-2.5-2.6l-0.6,0.2
							c-0.9,0.4-2.5,1-3.9,1c-2.2,0-3.8-0.6-4.7-1.8c-1-1.2-1.4-3.3-1.4-6.1V26h7.4c1.7,0,3.2-1.4,3.2-3.2c0-1.7-1.4-3.2-3.2-3.2
							h-7.4v-9.1c0-2.1-1.7-3.8-3.8-3.8c-2.1,0-3.8,1.7-3.8,3.8v9.1h-4.2c-1.7,0-3.2,1.4-3.2,3.2c0,1.7,1.4,3.2,3.2,3.2h4.2v25
							C112.3,59.5,116.1,63.8,123.8,63.8z"/>
						<path id="路径备份" class="st0" d="M3.9,64c2.2,0,3.9-1.7,3.9-3.9V11.2l0,0l31.8,48.7c1.7,2.5,4.5,4.1,7.5,4.1
							c2.7,0,4.8-2.2,4.8-4.8V5c0-2.2-1.8-4-4-4s-4,1.8-4,4v50l0,0l-31-49.7C11.2,2.6,8.3,1,5.1,1C2.3,1,0,3.3,0,6.1v54
							C0,62.3,1.7,64,3.9,64z"/>
						<path id="V" class="st0" d="M162.5,63.8c2.4,0,4.3-0.9,5.3-3.6l20.9-54.7c0.2-0.4,0.2-0.8,0.2-1.2c0-1.6-1.3-2.8-2.9-3.3
							c-0.5-0.1-1-0.2-1.4-0.2c-1.6,0-2.9,0.7-3.4,2.3l-15.9,43.5c-1,3-2,6.6-2.9,9.9c-0.9-3.2-1.7-6.8-2.8-9.8l-16-43.7
							c-0.6-1.6-1.9-2.3-3.4-2.3c-0.5,0-1,0.1-1.4,0.2c-1.7,0.4-2.9,1.8-2.9,3.3c0,0.4,0.1,0.9,0.2,1.3l20.9,54.5
							C158.1,62.9,160,63.8,162.5,63.8z"/>
					</g>
				</g>
				<g id="编组-2备份-2" transform="translate(173.000000, 33.000000)">
					<path id="形状结合" class="st0" d="M25.3,8.4c1.2,0,2.1,0.9,2.2,2.1l0,0.2V28c0,3.2-0.8,5.8-2.6,7.5c-1.1,1-3.1,2-6.1,2.5
						c-0.1,0-0.2,0-0.3,0l0,0l-0.1,0c-0.8,0-1.4-0.6-1.5-1.3l0-0.1c0-0.7,0.4-1.3,1.1-1.5L18,34.6c3.3-0.7,5-2.8,5.1-6.3l0-0.3V10.6
						C23.1,9.3,24.1,8.4,25.3,8.4z M48.3,8.6l0.2,0.1c0.8,0.2,1.4,1.1,1.3,1.9c-0.1,0.9-0.8,1.4-1.6,1.4c-0.2,0-0.3,0-0.5-0.1
						c-0.9-0.5-2.3-1-4.1-0.9c-2,0.1-3,1.3-2.9,2.7c0.1,1.4,1.1,2.1,3.7,3.1c3.5,1.2,5.5,3,5.6,6c0.2,4-2.8,6.5-7.5,6.8
						c-2.1,0.1-4.1-0.3-5.5-1l-0.3-0.1C36,28.1,35,27.2,35.5,26c0.5-1.4,2.1-1,2.2-0.9c0.1,0,0.2,0.1,0.3,0.1c1.2,0.5,2.6,1,4.4,0.9
						c2.4-0.1,3.4-1.3,3.4-2.9c-0.1-1.6-1-2.4-3.6-3.3c-3.8-1.3-5.6-3.3-5.7-5.7C36.3,10.9,39,8,43.4,7.7
						C45.4,7.6,47.1,8.1,48.3,8.6z M25.2,0c1.6,0,2.6,1.1,2.6,2.6c0,1.4-1,2.6-2.6,2.6c-1.5,0-2.6-1.2-2.6-2.6
						C22.6,1.1,23.7,0,25.2,0z"/>
					<ellipse id="椭圆形备份-8" class="st0" cx="2.5" cy="29" rx="2.5" ry="3"/>
				</g>
			</g>
			<path id="e" class="st1" d="M79.2,63.2c8.7,0,13.6-4.3,16.9-10.9c0.2-0.6,0.3-1.1,0.3-1.6c0-1.7-1.9-2.8-3.5-2.8
				c-1.1,0-2.1,0.7-2.7,2.1c-2.2,5.3-5.5,8.1-11.1,8.1c-7.2,0-12.6-5.1-13.1-15.6h25.9c3.7,0,4.9-1.7,4.9-5.3c0-6.7-5.2-18-17.7-18
				C67,19.2,60,28.7,60,41.1C60,53.7,66.8,63.2,79.2,63.2z M89.7,37.2H66c1.2-8.4,6.3-13,13.2-13c6.7,0,10.3,4.5,11.7,10.4
				c0.1,0.3,0.2,0.8,0.2,1.2C91,36.6,90.6,37.2,89.7,37.2z"/>
		</g>
		<g id="编组-7">
			<g id="编组-6备份">
				<g id="编组">
					
						<g id="分组-2-copy-3" transform="translate(82.724856, 82.498237) rotate(25.000000) translate(-82.724856, -82.498237) translate(20.224856, 20.998237)">
						<path id="合并形状" class="st0" d="M84.5,32.6c3.6-0.8,7.2,1.5,7.9,5.2c0,0.1,0.1,0.3,0.1,0.4c0.1,0.5,0.2,1,0.2,1.6
							c0,0.4,0.1,0.6,0.1,0.7c0,0.1,0,0.3,0.1,0.5c0.2,0.8,0.4,1.5,0.8,2.1c0.6,1,1.9,2.3,4,2.9c0.8,0.2,1.8,0.3,3,0.1
							c0.9-0.2,2-0.2,3,0c3.6,0.8,6,4.2,5.2,7.6c-0.2,1.1-0.7,2-1.4,2.8L98,49.1l9.2,7.7c-0.6,0.7-1.3,1.4-2.2,1.8l-0.3,0.1
							c-3.3,1.5-7.1-0.1-8.6-3.5c-0.4-1-0.6-1.9-0.6-2.9c-0.1-1.2-0.3-2.1-0.7-2.9c-1-1.9-2.5-2.9-3.6-3.3c-0.6-0.2-1.4-0.3-2.3-0.3
							c-0.2,0-0.4,0-0.6,0c-0.1,0-0.3,0-0.7,0.1c-1.8,0.4-3.6,0-5.1-1c-1.6-0.9-2.9-2.5-3.3-4.5C78.5,36.9,80.8,33.3,84.5,32.6z"/>
						<path id="合并形状-copy" class="st0" d="M74.3,53.2c-0.9-1.9,0-4.2,2-5c0.1,0,0.1-0.1,0.2-0.1c0.3-0.1,0.5-0.2,0.8-0.3
							l-0.1,0c0.3-0.1,0.4-0.1,0.5-0.2c0.1,0,0.2-0.1,0.3-0.1c0.4-0.2,0.8-0.4,1.1-0.7c0.5-0.5,1.1-1.3,1.1-2.6
							c0-0.5-0.1-1.1-0.3-1.7c-0.2-0.5-0.4-1.1-0.4-1.7c0-2.1,1.6-3.8,3.6-3.8c0.6,0,1.2,0.2,1.7,0.5l-2.9,6l3.2-6
							c0.5,0.2,0.9,0.5,1.2,1l0.1,0.2c1.2,1.6,0.8,4-0.9,5.2c-0.5,0.3-1,0.6-1.5,0.7c-0.6,0.2-1.2,0.4-1.5,0.7
							c-0.9,0.8-1.3,1.7-1.4,2.4c-0.1,0.4,0,0.8,0.1,1.3c0,0.1,0.1,0.2,0.1,0.3c0,0.1,0.1,0.2,0.1,0.4l0,0.1l0-0.1
							c0.4,0.9,0.4,2,0,3c-0.3,1-1.1,1.9-2.1,2.4C77.5,55.9,75.2,55.1,74.3,53.2z"/>
						<path id="合并形状-copy-2" class="st0" d="M110.5,47.6c2.3,1.4,4.2,3.3,5.5,5.6l0,0c1.4,2.1,2.2,4.6,2.5,7.2
							c0.8,8.8-5.8,16.6-14.8,17.4c-2.5,0.2-5-0.1-7.2-1c-2.7-0.8-5.1-1-7.1-0.7c-5.2,0.8-8.6,3.6-10.4,5.9c-1,1.3-1.9,3-2.6,5.1
							c-0.2,0.6-0.3,1-0.4,1.3c-0.1,0.3-0.2,0.8-0.4,1.7c-0.8,7.5-6.9,13.7-14.8,14.4c-6.1,0.5-11.7-2.3-14.9-7l-0.1,0
							c-3.3-5-3.7-11.8-0.3-17.4c4.1-6.8,12.3-9.6,19.4-7c0.8,0.2,1.4,0.4,1.7,0.4c0.3,0.1,0.8,0.1,1.4,0.2c2.1,0.3,4,0.3,5.7-0.1
							c2.9-0.6,6.9-2.4,9.9-6.7c1.2-1.7,2-3.9,2.5-6.7c0.2-2.4,1-4.7,2.3-6.9C93,45.6,102.9,43,110.5,47.6z"/>
						<path id="合并形状_1_" class="st0" d="M41,10.4c2.9-1.7,6-2.6,9.2-2.8l0,0c3.1-0.3,6.2,0.2,9.3,1.5
							c10,4.3,14.7,15.9,10.4,26c-1.2,2.9-3,5.3-5.2,7.2c-2.4,2.5-4,4.9-4.9,7.3c-2.1,6-1,11.3,0.5,14.6c0.8,1.9,2.2,3.8,4,5.7
							c0.5,0.5,0.9,0.9,1.2,1.2c0.2,0.2,0.8,0.7,1.6,1.3c7.7,5.2,10.9,15.3,7.1,24.2c-3.1,7.3-10.1,11.8-17.5,12.1l0,0l0,0
							c-7.1,0.4-14.2-3.1-18.2-9.6c-5-8.3-3.2-18.8,3.7-25c0.7-0.8,1.2-1.3,1.4-1.5c0.3-0.3,0.6-0.8,1-1.3c1.6-2.1,2.6-4.2,3.2-6.2
							c1-3.5,1.4-8.9-1.6-14.5c-1.2-2.2-3.1-4.4-5.8-6.5c-2.4-1.6-4.6-3.8-6.2-6.4C28.7,28.2,31.7,16,41,10.4z"/>
					</g>
				</g>
				<ellipse id="椭圆形" class="st0" cx="90" cy="87.9" rx="7.5" ry="7.5"/>
			</g>
			<path id="路径-3" class="st0" d="M80.9,91c1.6,4.7,5.1,7.4,10.7,8.1c0.5,0.1,1.5,1.2,1.9,1.3c2.1,0.4-2.7,1.9-14.6,4.6L73,99
				l1.9-7.4L80.9,91z"/>
		</g>
	</g>
</g>
</svg>
