<?xml version="1.0" encoding="utf-8"?>
<!-- Generator: Adobe Illustrator 22.1.0, SVG Export Plug-In . SVG Version: 6.00 Build 0)  -->
<svg version="1.1" id="图层_1" xmlns="http://www.w3.org/2000/svg" xmlns:xlink="http://www.w3.org/1999/xlink" x="0px" y="0px"
	 viewBox="0 0 120 120" style="enable-background:new 0 0 120 120;" xml:space="preserve">
<style type="text/css">
	.st0{clip-path:url(#SVGID_1_);fill:url(#SVGID_2_);}
	.st1{clip-path:url(#SVGID_1_);fill:url(#SVGID_3_);}
	.st2{clip-path:url(#SVGID_1_);fill:url(#SVGID_4_);}
	.st3{clip-path:url(#SVGID_1_);fill:url(#SVGID_5_);}
	.st4{clip-path:url(#SVGID_1_);fill:url(#SVGID_6_);}
	.st5{clip-path:url(#SVGID_7_);fill:url(#SVGID_8_);}
	.st6{clip-path:url(#SVGID_7_);fill:url(#SVGID_9_);}
	.st7{clip-path:url(#SVGID_7_);fill:url(#SVGID_10_);}
	.st8{clip-path:url(#SVGID_7_);fill:url(#SVGID_11_);}
	.st9{clip-path:url(#SVGID_7_);fill:url(#SVGID_12_);}
	.st10{clip-path:url(#SVGID_14_);fill:url(#SVGID_15_);}
	.st11{clip-path:url(#SVGID_14_);fill:url(#SVGID_16_);}
	.st12{clip-path:url(#SVGID_14_);fill:url(#SVGID_17_);}
	.st13{clip-path:url(#SVGID_14_);fill:url(#SVGID_18_);}
	.st14{clip-path:url(#SVGID_14_);fill:url(#SVGID_19_);}
	.st15{clip-path:url(#SVGID_20_);fill:url(#SVGID_21_);}
	.st16{clip-path:url(#SVGID_20_);fill:url(#SVGID_22_);}
	.st17{clip-path:url(#SVGID_20_);fill:url(#SVGID_23_);}
	.st18{clip-path:url(#SVGID_20_);fill:url(#SVGID_24_);}
</style>
<g>
	<g>
		<g>
			<defs>
				<path id="SVGID_337_" d="M69.2,14.8c-20.3-7.4-30,22.7-3.7,26c21.2,2.6,29.3,10.9,25.6,21c1.5-4,2.2-8.3,2.2-12.5
					c0-11.7-5.5-22.2-14.1-28.9C76.3,18,72.9,16.1,69.2,14.8z"/>
			</defs>
			<clipPath id="SVGID_1_">
				<use xlink:href="#SVGID_337_"  style="overflow:visible;"/>
			</clipPath>
			
				<radialGradient id="SVGID_2_" cx="1.0369" cy="16.4377" r="104.7374" gradientTransform="matrix(1 1.000000e-04 -1.000000e-04 1 0.3659 3.110000e-02)" gradientUnits="userSpaceOnUse">
				<stop  offset="0" style="stop-color:#94D3EB"/>
				<stop  offset="0.5" style="stop-color:#4AB034"/>
				<stop  offset="1" style="stop-color:#003C69"/>
			</radialGradient>
			<path class="st0" d="M83.8,78.8c0,2.2-0.1,5.5,1.5,7.3c1.9,2.2,4.8,0.1,5.3-2.2c0.5-2.4-0.2-4.9-0.4-7.3
				c-0.2-2.4,0.1-4.9,0.6-7.3c1-4.9,2.7-9.7,3.5-14.7c1.6-10.1-0.5-20.4-2.6-30.3c-0.3-1.4-0.6-2.8-1.6-3.8
				c-1.7-1.7-4.2-1.7-5.3,0.6c-0.9,1.8,0.2,3.2,0.7,4.9c5.7,19.6,1.9,24.4,0.1,37C85.3,64.6,83.8,72.5,83.8,78.8z"/>
			
				<radialGradient id="SVGID_3_" cx="-141.9919" cy="71.7772" r="159.4135" gradientTransform="matrix(1.1244 -6.560000e-02 4.070000e-02 1.1741 90.0231 -164.1301)" gradientUnits="userSpaceOnUse">
				<stop  offset="0" style="stop-color:#94D3EB"/>
				<stop  offset="0.5" style="stop-color:#4AB034"/>
				<stop  offset="1" style="stop-color:#003C69"/>
			</radialGradient>
			<path class="st1" d="M72.1,29.6c-3.7-6.7-9.7-13.2-15.9-18.2C52.6,8.5,48.2,6,43.7,5.4c-2.1-0.3-3.6,1.2-3.5,3.4
				c0.2,3.4,3.5,5.3,6.1,6.7c3.6,1.9,6.7,4.4,9.5,7.3c5.5,5.7,10.6,12.4,12.6,20.4c2.3,9.4,0.3,19.6-2.1,28.8
				c-0.6,2.1-1.3,5.1,0.4,6.8c1.3,1.4,3.7,1.1,5.2-0.1c1.5-1.2,2.3-3.1,2.9-5c1.5-4.9,4.6-12.3,3.7-22.6
				C77.8,43.5,75.5,35.8,72.1,29.6z"/>
			
				<radialGradient id="SVGID_4_" cx="7.5118" cy="-55.7119" r="116.5073" gradientTransform="matrix(1 1.000000e-04 -1.000000e-04 1 0.3659 3.110000e-02)" gradientUnits="userSpaceOnUse">
				<stop  offset="0" style="stop-color:#94D3EB"/>
				<stop  offset="0.5" style="stop-color:#4AB034"/>
				<stop  offset="1" style="stop-color:#003C69"/>
			</radialGradient>
			<path class="st2" d="M54.8,4.9C52.6,8.4,51,12.4,50,16.4c-0.8,3-1.8,6.5-1.5,9.6c0.5,4.4,2.2,8.7,5.7,11.6
				c7.3,6.2,17.9,5.4,25.9,10.1c2.2,1.3,4.2,3,5.8,5c1.6,1.9,2.4,4.7,4.2,6.3c0.4,0.4,0.9,0.7,1.5,0.6c1.4-0.1,2.1-1.9,2.1-3.1
				c0-2.5-1.1-5.3-2.2-7.5c-2.2-4.3-4.5-10.4-23.7-12.9c-5.6-0.7-11.3-5.3-12.5-11c-1.3-6.4,2.4-13.3,7.1-17.5
				c3.8-3.3,8.5-5.3,12-8.9c0.8-0.9,1.7-2,1.4-3.1c-0.4-1.3-2-1.8-3.3-1.9c-4.8-0.2-9.6,2-13.1,5.3C57.7,0.8,56.1,2.7,54.8,4.9z"/>
			
				<radialGradient id="SVGID_5_" cx="-28.2355" cy="7.7326" r="134.6084" gradientTransform="matrix(0.9998 -1.970000e-02 1.970000e-02 0.9998 -12.8399 -35.4184)" gradientUnits="userSpaceOnUse">
				<stop  offset="0" style="stop-color:#94D3EB"/>
				<stop  offset="0.5" style="stop-color:#4AB034"/>
				<stop  offset="1" style="stop-color:#003C69"/>
			</radialGradient>
			<path class="st3" d="M101.2,58.3c1.6,0.3,2.7-0.9,3-2.6c0.3-2-0.3-3-1.5-4.6C99.5,47,92.1,34.8,81.9,28.6
				c-3.5-2.1-10.4-5.8-21.3-6.5c-5.9-0.4-14,0.8-19.5,2.9c-3,1.1-10.5,3-8,7.7C35,36.1,41.4,33,44,32.2c9.1-2.7,18.5-3.5,27.8-0.1
				c8.6,3.1,15.1,10.6,20.9,17.8c2.3,2.8,4,6.3,7.4,8.1C100.4,58.2,100.8,58.3,101.2,58.3z"/>
			
				<radialGradient id="SVGID_6_" cx="-7.164149e-02" cy="-17.6297" r="87.7565" gradientTransform="matrix(1 1.000000e-04 -1.000000e-04 1 0.3659 3.110000e-02)" gradientUnits="userSpaceOnUse">
				<stop  offset="0" style="stop-color:#94D3EB"/>
				<stop  offset="0.5" style="stop-color:#4AB034"/>
				<stop  offset="1" style="stop-color:#003C69"/>
			</radialGradient>
			<path class="st4" d="M87.3,56.5c2-9.3,2.6-18.7-0.3-27.6c-2.5-7.5-9.3-14.1-17.1-15.6c-4.4-0.8-9.1-0.6-13.4,0.7
				c-3.9,1.2-7.2,3.4-10.3,5.9c-2.4,2-4.4,4.5-5.8,7.3c-1,2.1-3,6.4-0.3,8c2.8,1.6,5.2-1.1,6.6-3.3c2.1-3.3,3.6-6.9,7-9.2
				c9.7-6.6,22.9-2.4,25.6,9.7c1.8,8.2,3.2,18,0.5,25.8c-0.9,2.6-2.4,5-4.1,7.3c-1.3,1.8-4.3,4.3-3.7,6.7c0.6,2.4,3.4,2.8,5.5,2.1
				c1.8-0.7,3.2-2.5,4.3-4C84.7,66.1,86.2,61.4,87.3,56.5z"/>
		</g>
		<g>
			<defs>
				<path id="SVGID_336_" d="M47,102.7c-2.2-1.3-4.3-2.8-6.2-4.5c-7.4-6.7-12.1-16.4-12.1-27.2c0-15.5,9.6-28.7,23.2-34.1
					c2.3-0.9,4.7-1.6,7.1-2c19.7-3.5,25,18.1,5.1,28.3C36.6,77.2,36.9,96.9,47,102.7z"/>
			</defs>
			<clipPath id="SVGID_7_">
				<use xlink:href="#SVGID_336_"  style="overflow:visible;"/>
			</clipPath>
			
				<radialGradient id="SVGID_8_" cx="110.0686" cy="6.048" r="94.9491" gradientTransform="matrix(1 1.000000e-04 -1.000000e-04 1 0.3659 3.110000e-02)" gradientUnits="userSpaceOnUse">
				<stop  offset="0" style="stop-color:#94D3EB"/>
				<stop  offset="0.5" style="stop-color:#4AB034"/>
				<stop  offset="1" style="stop-color:#003C69"/>
			</radialGradient>
			<path class="st5" d="M80,42.6c-2.1-4.3-8-7.4-12-8.8C56.6,29.7,41.4,37,33.8,45.7c-7.4,8.5-10.1,19.9-7.8,30.9
				c1.9,9.2,4.4,18.5,4.3,28c-0.1,5.5-2.3,9.8-4.6,14.7c-1.1,2.4-2.3,5.6-0.2,7.8c4.1,4.4,9.7-3.1,11.4-6.5c3.4-7.1,5-15.7,3-23.5
				c-1.1-8.4-4.2-16.5-4.8-25c-0.4-5.4,0.3-11.1,2.7-16c2.8-5.7,7.4-8.6,13-11.1c7.8-3.5,17.4-6.5,24.4,0.4c0.7,0.7,1.3,1.5,2.2,2
				c2.1,1.3,3.8-0.4,3.3-2.7C80.6,43.8,80.3,43.2,80,42.6z"/>
			
				<radialGradient id="SVGID_9_" cx="114.7992" cy="1.1701" r="94.1744" gradientTransform="matrix(1 1.000000e-04 -1.000000e-04 1 0.3659 3.110000e-02)" gradientUnits="userSpaceOnUse">
				<stop  offset="0" style="stop-color:#94D3EB"/>
				<stop  offset="0.5" style="stop-color:#4AB034"/>
				<stop  offset="1" style="stop-color:#003C69"/>
			</radialGradient>
			<path class="st6" d="M41.6,63.2c-1.6,9.6,1.1,21,7.1,27.3c0.8,0.9,1.9,1.7,3.1,1.8c0.7,0.1,1.4-0.1,1.9-0.6
				c0.8-0.9,0.5-2.2,0.2-3.4C51.9,82,49,75.8,49,69c0-5.4,1.6-13,6-16.7c6-5.1,12.9-2.6,14.8,4.5c0.6,2.4,1.2,12.8,5.3,11.7
				c1.6-0.5,2.3-2.4,2.4-4.1c0.5-5-0.6-13.1-3.8-17.4c-5.1-6.6-14.4-8.1-21.7-3C45.6,48.3,42.8,56.3,41.6,63.2z"/>
			
				<radialGradient id="SVGID_10_" cx="114.9895" cy="1.5899" r="94.9493" gradientTransform="matrix(1 1.000000e-04 -1.000000e-04 1 0.3659 3.110000e-02)" gradientUnits="userSpaceOnUse">
				<stop  offset="0" style="stop-color:#94D3EB"/>
				<stop  offset="0.5" style="stop-color:#4AB034"/>
				<stop  offset="1" style="stop-color:#003C69"/>
			</radialGradient>
			<path class="st7" d="M78.2,54.5c1-2.9,1.2-6,0.8-9c-0.4-3.1-1.5-6.1-3.1-8.7c-4.2-6.7-11.2-7.5-18.6-6.9
				c-1.1,0.1-2.2,0.2-3.1,0.7c-0.9,0.5-1.6,1.6-1.5,2.6c0.3,1.9,2.8,1.4,4.1,1.3c1.8-0.1,3.6,0,5.4,0.3c3,0.6,5.9,2.1,7.5,4.7
				c3.7,5.8,1.3,13.4-2.8,16.8c-5.4,4.5-15.7,5.9-23.8,8.7c-6.4,2.3-11.4,7.7-13.9,14c-2.1,5.1-2.3,11.5-1.5,16.9
				c0.4,2.7,5.7,16.9,9.8,9.4c1.7-3-2-8.2-2.3-11.4c-0.7-6.5,0.9-13.9,6.2-18.2c9.6-7.9,24.4-5.8,32.9-15.4
				C76.1,58.8,77.4,56.8,78.2,54.5z"/>
			
				<radialGradient id="SVGID_11_" cx="113.0765" cy="3.5001" r="94.9501" gradientTransform="matrix(1 1.000000e-04 -1.000000e-04 1 0.3659 3.110000e-02)" gradientUnits="userSpaceOnUse">
				<stop  offset="0" style="stop-color:#94D3EB"/>
				<stop  offset="0.5" style="stop-color:#4AB034"/>
				<stop  offset="1" style="stop-color:#003C69"/>
			</radialGradient>
			<path class="st8" d="M45.8,35.4C26.6,60.1,39.1,84.2,65.2,96c1.7,1,3.7,1.9,5.7,2.7c4,1.5,7.8,2.3,8.8,0.5c1.4-2.4-0.3-4-3-5.6
				c-1.4-0.8-3.1-1.6-4.8-2.5C47.4,81.4,33.6,51.5,56,36.1c5.5-3.8,8.1-7.9,6.1-9.7C59.3,23.9,51.6,28,45.8,35.4z"/>
			
				<radialGradient id="SVGID_12_" cx="107.0052" cy="6.1063" r="94.1069" gradientTransform="matrix(1 1.000000e-04 -1.000000e-04 1 0.3659 3.110000e-02)" gradientUnits="userSpaceOnUse">
				<stop  offset="0" style="stop-color:#94D3EB"/>
				<stop  offset="0.5" style="stop-color:#4AB034"/>
				<stop  offset="1" style="stop-color:#003C69"/>
			</radialGradient>
			<path class="st9" d="M37.8,87.9c-0.2,5.8,0.5,11.8,2.9,17.2c2,4.5,7.4,12.1,13.1,11.5c2.8-0.3,3.1-2.8,2.2-4.9
				c-2.7-6.7-8.5-4.6-10.8-17.3c-1.6-9.1,1.2-17.9,7.2-24.2c3.8-4.1,7.3-8.3,9.2-12c3.1-6,4.5-11.7,4-18.1
				c-0.5-6.6-1.3-12.2-3.2-19.3c-0.5-1.9-1.4-4.2-2.9-5.5c-1.9-1.8-4.8-1.2-5.4,1.6c-0.5,2.5,0.9,5.3,1.6,7.6
				c0.9,2.8,1.7,5.6,2.3,8.5c1.2,5.6,1.5,11.5-0.2,17c0,0,0,0,0,0c-2.4,7.7-10.3,13.4-14.6,20C39.7,75.6,38,81.7,37.8,87.9z"/>
		</g>
		<g>
			<defs>
				<path id="SVGID_335_" d="M75,17.5c2.2,1.3,4.3,2.8,6.2,4.5c7.4,6.7,12.1,16.4,12.1,27.2c0,15.5-9.6,28.7-23.2,34.1
					c-2.3,0.9-4.7,1.6-7.1,2c-19.7,3.5-25-18.1-5.1-28.3C85.4,43,85.1,23.3,75,17.5z"/>
			</defs>
			<clipPath id="SVGID_13_">
				<use xlink:href="#SVGID_335_"  style="overflow:visible;"/>
			</clipPath>
		</g>
		<g>
			<defs>
				<path id="SVGID_334_" d="M75,17.5c2.2,1.3,4.3,2.8,6.2,4.5c7.4,6.7,12.1,16.4,12.1,27.2c0,15.5-9.6,28.7-23.2,34.1
					c-2.3,0.9-4.7,1.6-7.1,2c-19.7,3.5-25-18.1-5.1-28.3C85.4,43,85.1,23.3,75,17.5z"/>
			</defs>
			<clipPath id="SVGID_14_">
				<use xlink:href="#SVGID_334_"  style="overflow:visible;"/>
			</clipPath>
			
				<radialGradient id="SVGID_15_" cx="-26.648" cy="108.6593" r="46.0601" gradientTransform="matrix(0.9974 -7.200000e-02 7.200000e-02 0.9974 86.1428 -64.2703)" gradientUnits="userSpaceOnUse">
				<stop  offset="0" style="stop-color:#94D3EB"/>
				<stop  offset="0.5" style="stop-color:#4AB034"/>
				<stop  offset="1" style="stop-color:#003C69"/>
			</radialGradient>
			<path class="st10" d="M70.4,15.2c1.5,1.5,3,2.9,4,4.7c4.5,7.5,2.8,17.4-3.4,23.5C63.9,50.4,54.1,54,48,62.1c-3.8,5-5,10.8-3,16.8
				c2.8,8.5,10.7,13.5,18.9,15.8c5.1,1.4,10.5,2.1,15.8,2.1c0.8,0,1.7,0,2.4-0.4c3.8-1.9-1.6-4.3-3.1-4.9c-3.3-1.3-6.7-2.5-10.1-3.6
				c-3.1-1-6.5-1.4-9.4-2.7c-4.9-2-6.5-6.5-6.6-11.3c-0.2-6.8,8.2-12.2,13.4-15c9.6-5.2,16.7-11.1,19.2-20.5
				c1.8-6.8,2-12.1-1.2-18.5c-1.7-3.3-3.7-6.4-6.2-9.1c-2.2-2.4-5.7-5.5-9.1-5.8c-2.6-0.2-3,2.6-2.4,4.5
				C67.2,11.9,68.7,13.6,70.4,15.2z"/>
			
				<radialGradient id="SVGID_16_" cx="100.9717" cy="-46.0999" r="59.6533" gradientTransform="matrix(0.9967 8.130000e-02 -8.130000e-02 0.9967 -36.7589 67.3456)" gradientUnits="userSpaceOnUse">
				<stop  offset="0" style="stop-color:#94D3EB"/>
				<stop  offset="0.5" style="stop-color:#4AB034"/>
				<stop  offset="1" style="stop-color:#003C69"/>
			</radialGradient>
			<path class="st11" d="M82.7,80.2c-4.8,5.5-10.8,12-18.3,13.4c-0.5,0.1-1.2,0.1-1.6-0.2c-1.7-1.6-0.9-7.3,0.3-8
				c13.6-8,24.5-18.6,25.2-32.6c0.2-4.3-0.7-8.1-1.6-12.2c-1.3-5.8-4.4-10.7-8.6-14.8c-2.2-2.1-4.3-4.1-6.4-6.3
				c-2.3-2.3-4.9-4.3-8-5.3c-1.1-0.4-2.3-0.7-3.2-1.4c-1-0.7-1.7-1.9-1.3-3c0.3-0.9,1.2-1.5,2.1-1.8c0.9-0.2,1.9-0.1,2.9,0.1
				C82.2,11.7,93,29,95.8,46.2c0.7,4,0.3,8.1-0.6,12.1c-1.3,6.4-4.6,12.1-8.6,17.1C85.4,77,84.1,78.6,82.7,80.2z"/>
			
				<radialGradient id="SVGID_17_" cx="-9.0444" cy="-53.1675" r="43.8828" gradientTransform="matrix(0.9941 0.1089 -0.1089 0.9941 60.8374 99.9655)" gradientUnits="userSpaceOnUse">
				<stop  offset="0" style="stop-color:#94D3EB"/>
				<stop  offset="0.5" style="stop-color:#4AB034"/>
				<stop  offset="1" style="stop-color:#003C69"/>
			</radialGradient>
			<path class="st12" d="M63.1,28.3c-0.3-0.3-0.7-0.5-1.1-0.6c-1.7-0.7-4.1,0-4.5,1.8c-0.3,1.6,1.1,3.1,2.2,4.3
				c5.4,5.5,8.1,12,10.3,19.1C72,58.7,73,76.7,56.3,85.1c-2.6,1.3-5.8,1.4-8.7,1c-3.6-0.5-6.5-2.6-9.9-3.9c-1-0.4-2-0.5-3-0.3
				c-1.6,0.4-2.8,1.9-2.8,3.5c0,2,1.7,3.5,3.3,4.4c12.5,7.2,37.3,0.5,42.4-14.4C83.8,57.3,76,46.1,68,32.3c-0.1-0.1-2.2-0.5-2.3-0.6
				C65,30.4,64.2,29.2,63.1,28.3z"/>
			
				<radialGradient id="SVGID_18_" cx="71.9104" cy="34.7131" r="55.7917" gradientTransform="matrix(1 1.000000e-04 -1.000000e-04 1 0.3659 3.110000e-02)" gradientUnits="userSpaceOnUse">
				<stop  offset="0" style="stop-color:#94D3EB"/>
				<stop  offset="0.5" style="stop-color:#4AB034"/>
				<stop  offset="1" style="stop-color:#003C69"/>
			</radialGradient>
			<path class="st13" d="M55.7,72.9c-0.2-7.2,3.4-14.9,10-18.2c3.7-1.8,7.9-2.3,11.9-3.5c9.4-2.9,16.6-10.2,21-18.9
				c0.3-0.6,0.6-1.3,1.2-1.8c0.5-0.5,1.3-0.8,2-0.5c0.6,0.3,1,0.9,1.1,1.6c0.1,0.7-0.1,1.3-0.3,2c-1.3,4.9-3.7,9.8-6.5,14
				c-4.9,7-12.5,9.8-20.6,11.5c-3.3,0.7-6.9,1.5-9.4,3.8c-3.8,3.5-3.4,10-0.9,14.2c1.8,3,4.5,5.3,7.4,7c2.8,1.7,6.5,2.2,9,4.3
				c0.3,0.2,0.6,0.5,0.7,0.9c0.2,0.5,0,1.2-0.3,1.6c-1.9,2.8-6.7,1.4-9.4,0.7C63.9,89.3,55.9,82.4,55.7,72.9z"/>
			
				<radialGradient id="SVGID_19_" cx="76.5337" cy="36.0537" r="59.2175" gradientTransform="matrix(1 1.000000e-04 -1.000000e-04 1 0.3659 3.110000e-02)" gradientUnits="userSpaceOnUse">
				<stop  offset="0" style="stop-color:#94D3EB"/>
				<stop  offset="0.5" style="stop-color:#4AB034"/>
				<stop  offset="1" style="stop-color:#003C69"/>
			</radialGradient>
			<path class="st14" d="M71.1,17.3c-1-0.5-2.1-0.7-3.1-0.2c-3.4,1.9,0.2,6.5,1.7,8.3c1.9,2.3,4.3,4.2,6.3,6.5
				c5.6,6.4,10.2,18,4.5,25.1c-3.9,4.8-12.6,6.1-18.3,8.3c-7.3,2.8-10.8,7.3-10.8,14c0,5.5,3.9,10.2,8.5,13
				c3.1,1.9,6.9,2.7,10.5,2.6c1.3,0,4-0.4,4.2-2c0.1-1.5-0.9-3-2.1-3.5c-4.3-2.1-11.8-4.5-11.5-10.7c0.2-3.6,4.4-6.2,9-7.5
				c13.9-3.8,17.7-6.6,19.5-16.5c1.7-9-1.2-15.8-5.1-22.4c-3.1-5.2-7.5-10.4-12.2-14.3C71.9,17.8,71.5,17.5,71.1,17.3z"/>
		</g>
		<g>
			<defs>
				<path id="SVGID_313_" d="M52.8,105.4c20.3,7.4,30-22.7,3.7-26c-21.2-2.6-29.3-10.9-25.6-21.1c-1.5,4-2.2,8.3-2.2,12.5
					c0,11.7,5.5,22.2,14.1,28.9C45.7,102.2,49.1,104.1,52.8,105.4z"/>
			</defs>
			<clipPath id="SVGID_20_">
				<use xlink:href="#SVGID_313_"  style="overflow:visible;"/>
			</clipPath>
			
				<radialGradient id="SVGID_21_" cx="10.2998" cy="125.0256" r="45.347" gradientTransform="matrix(0.9976 -6.910000e-02 6.910000e-02 0.9976 24.9995 -61.2639)" gradientUnits="userSpaceOnUse">
				<stop  offset="0" style="stop-color:#94D3EB"/>
				<stop  offset="0.5" style="stop-color:#4AB034"/>
				<stop  offset="1" style="stop-color:#003C69"/>
			</radialGradient>
			<path class="st15" d="M79.1,102.3c0.2-1.4,0.1-2.9-0.1-3.8c-0.7-4.6-2.8-9-6.1-12.3c-4.4-4.3-10.4-6.2-16.3-7.4
				c-4.5-1-8.9-1.8-13.1-3.9c-3.7-1.8-6.8-4.4-8.8-8c-2-3.7-2.6-8.1-1.7-12.2c0.3-1.3,0.8-2.6,0.8-3.9c0-1.3-0.5-2.8-1.7-3.4
				c-1.3-0.7-2.9-0.2-3.9,0.9c-1,1-1.5,2.4-1.8,3.8c-1,4.4,0.8,7.2,0.9,11.7c0.2,8,3.3,13.5,9.2,17c10.7,6.4,21.1,3.9,28.2,8.9
				c2.4,1.7,4.4,3.8,5.7,6.4c0.8,1.7,1.4,3.5,1.7,5.4c0.3,1.8,1,4.5,3.1,4.9C77.9,106.8,78.8,104.6,79.1,102.3z"/>
			
				<radialGradient id="SVGID_22_" cx="34.6476" cy="159.5547" r="63.4949" gradientTransform="matrix(0.995 -0.1002 0.1002 0.995 -11.0375 -85.9285)" gradientUnits="userSpaceOnUse">
				<stop  offset="0" style="stop-color:#94D3EB"/>
				<stop  offset="0.5" style="stop-color:#4AB034"/>
				<stop  offset="1" style="stop-color:#003C69"/>
			</radialGradient>
			<path class="st16" d="M71.1,99.6c-3.9-1.2-7.7-2.6-11.5-4.2c-6.9-3-13.9-8.2-18.2-14.5c-2.7-3.9-3.9-8.5-4.3-13.2
				c-0.2-2.3-0.2-4.7-0.2-7c0.1-2.2,1.3-6-0.8-7.5c-3.2-2.4-4.3,1.9-4.6,4.3c-0.7,5.6-0.7,11.5,0.3,17c0.8,4.4,2.4,8.8,4.9,12.6
				c4.3,6.8,11.2,10.5,18.2,13.9c9,4.3,18.1,6.3,27,9.7c1.9,0.7,4.5,1.5,6.4,0.3c2.1-1.3,2-4.3-0.2-5.4
				C82.8,102.7,76.8,101.5,71.1,99.6z"/>
			
				<radialGradient id="SVGID_23_" cx="48.2366" cy="133.5862" r="50.726" gradientTransform="matrix(0.9419 -4.230000e-02 6.670000e-02 0.9711 -21.1537 -47.935)" gradientUnits="userSpaceOnUse">
				<stop  offset="0" style="stop-color:#94D3EB"/>
				<stop  offset="0.5" style="stop-color:#4AB034"/>
				<stop  offset="1" style="stop-color:#003C69"/>
			</radialGradient>
			<path class="st17" d="M39.4,97.1c-5.1-3-9.1-7.4-13.4-11.4c-1.8-1.6-10.5-9.4-12.6-4.6c-0.8,1.8,1.1,3.2,2.4,4.1
				c11.1,7.4,19.2,21,33.3,23.4c10.1,1.8,21.6-3.5,25.8-13.1c2.9-6.7,0.2-15.6-3-21.8c-0.9-1.8-2.3-4-4.4-4.8
				c-2.1-0.8-4.5,0.1-5.3,2.2C61,74.2,63.6,76.8,65,79c2.4,3.7,3.2,8.6,2,12.9c-1.7,6.2-8,9.2-14,9.3
				C48.2,101.2,43.5,99.5,39.4,97.1z"/>
			
				<radialGradient id="SVGID_24_" cx="42.4253" cy="69.2752" r="50.4752" gradientTransform="matrix(1 1.000000e-04 -1.000000e-04 1 0.3659 3.110000e-02)" gradientUnits="userSpaceOnUse">
				<stop  offset="0" style="stop-color:#94D3EB"/>
				<stop  offset="0.5" style="stop-color:#4AB034"/>
				<stop  offset="1" style="stop-color:#003C69"/>
			</radialGradient>
			<path class="st18" d="M20.9,72.5c-0.5,0.1-0.9,0.5-1.3,1.3c-0.7,1.4,0.2,3,1,4.1c3.2,4.2,6.7,8.2,10.8,11.6
				c4.6,3.7,7.6,6.9,16.6,6.1c7.4-0.6,9.9-2.7,14.9-1.8c4.9,0.8,5.3,7.3,2.3,10.4c-2.2,2.3-4.9,2.3-7.8,3.4
				c-3.3,1.2-6.7,2.9-9.3,5.3c-1.9,1.7-4,4.2-4.1,6.9c-0.2,2.9,2.6,5.2,5.4,4c2.2-1,3.6-3.3,5.1-5c1.8-2.2,4.2-4.5,7-5.4
				c4.5-1.5,9.1-4.2,11.4-8.5c2.4-4.3,1.7-10.5-0.7-14.6c-1.5-2.6-4-4.5-6.7-5.6c-4.4-1.8-8.9-1-13.3,0.6c-3,1.1-5.4,2.5-8.7,2.6
				c-7.1,0.1-13.3-6.2-17.5-11.5C25,75.1,22.7,72,20.9,72.5z"/>
		</g>
	</g>
</g>
</svg>
