<?xml version="1.0" encoding="utf-8"?>
<!-- Generator: Adobe Illustrator 22.1.0, SVG Export Plug-In . SVG Version: 6.00 Build 0)  -->
<svg version="1.1" id="图层_1" xmlns="http://www.w3.org/2000/svg" xmlns:xlink="http://www.w3.org/1999/xlink" x="0px" y="0px"
	 viewBox="0 0 238 239" style="enable-background:new 0 0 238 239;" xml:space="preserve">
<style type="text/css">
	.st0{fill:#FFFFFF;}
	.st1{fill:#003F87;}
</style>
<circle class="st0" cx="118.9" cy="119.5" r="119.3"/>
<g>
	<g>
		<path class="st1" d="M119,0.1c65.7,0,119.3,53.6,119.3,119.3S184.7,238.7,119,238.7S-0.3,185.1-0.3,119.4
			C-0.3,53.7,53.3,0.1,119,0.1 M119,4.9C55.9,4.9,4.5,56.3,4.5,119.4S55.9,233.9,119,233.9s114.5-51.5,114.5-114.5
			C233.5,56.3,182.1,4.9,119,4.9"/>
		<path class="st1" d="M77.1,170.3c-7.5-6.2-13.6-13.9-17.8-22.8c-4-8.5-6.3-18-6.3-28c0-36.3,29.6-65.9,65.9-65.9
			s65.9,29.6,65.9,65.9c0,10-2.3,19.5-6.3,28c-4.2,8.8-10.3,16.6-17.7,22.8l-1.5-1.8c7.2-5.9,13.1-13.5,17.1-22c3.9-8.2,6-17.4,6-27
			c0-35-28.5-63.6-63.6-63.6c-35,0-63.5,28.6-63.5,63.6c0,9.7,2.2,18.8,6,27c4,8.5,9.9,16,17.1,22L77.1,170.3z"/>
		<polygon class="st1" points="16.8,159.2 12.3,147.2 14.8,146.3 35.4,149.4 32.3,141 34.7,140.1 38.8,151.2 36.4,152 15.8,148.9 
			19.3,158.4 		"/>
		<polygon class="st1" points="24.7,175.7 23.5,173.3 33.2,168.3 30.1,162.3 20.4,167.3 19.1,164.9 39.9,154.2 41.1,156.6 
			32.4,161.1 35.4,167.1 44.2,162.6 45.4,165 		"/>
		<polygon class="st1" points="34.5,188.8 27.2,178.5 46.6,166.5 53.6,176.2 51.5,177.6 46.1,170.1 40.1,173.9 45,180.7 42.8,182.1 
			37.9,175.2 31,179.5 36.7,187.5 		"/>
		<polygon class="st1" points="51,205 48.6,202.9 62.9,185.3 65.4,187.4 		"/>
		<path class="st1" d="M62.1,212.7l2.9-6.2l-3.6-2.6l-5.3,5.1l-2.4-1.9l16.8-16.6l3.4,2.1L65,214.4L62.1,212.7z M66.4,203.5l3.5-8
			l-0.3-0.3l-6,6.2L66.4,203.5z"/>
		<polygon class="st1" points="78.9,220.9 75.9,219.4 77.7,203.3 71.1,216.9 68,215.5 78.5,194.7 81.3,195.9 80,211.3 86.8,198.6 
			89.4,199.7 		"/>
		<path class="st1" d="M94.6,225.5l-2-0.6l0.2-1.8c-0.4,0.4-1.1,0.6-1.8,0.8c-0.8,0.1-1.5,0.1-2.3-0.2c-1.6-0.5-2.8-1.8-3.6-3.8
			c-0.8-2-0.6-4.8,0.5-8.3c1.2-3.8,2.6-6.5,4.4-8c1.7-1.5,4.4-2.3,6.7-1.6c2.5,0.8,4.1,3.9,3.4,8.1l-3-0.2c0.5-1.8,0.2-4.7-1.5-5.3
			c-1.4-0.5-3.1,0-4.1,1.1s-2,3.3-3,6.5c-0.9,3-1.2,5.2-0.8,6.6c0.4,1.4,1.1,2.3,2.1,2.6s1.9,0.2,2.7-0.4c0.8-0.6,1.5-1.7,2-3.3
			l0.4-1.4l-3.6-1.2l0.7-2.3l5.9,1.9L94.6,225.5z"/>
		<path class="st1" d="M125.6,220.4c-0.1,2.1-0.6,3.7-1.7,4.9s-2.7,1.7-4.9,1.6c-2.2-0.1-3.8-0.7-4.7-2c-1-1.3-1.4-2.9-1.4-5
			l0.5-15.9l2.8,0.1l-0.5,15.9c0,1.5,0.3,2.6,0.9,3.3s1.5,1.1,2.5,1.2c1.1,0,1.9-0.3,2.6-1s1-1.8,1.1-3.2l0.5-15.9l2.8,0.1
			L125.6,220.4z"/>
		<polygon class="st1" points="141.5,224.6 139,225 131.2,209.9 132.4,226.1 129.4,226.5 127.7,203.7 131.1,203.4 137.6,214 
			136.4,202.6 138.8,202.2 		"/>
		<polygon class="st1" points="150,222.2 147.1,223.1 141,201.5 144,200.6 		"/>
		<polygon class="st1" points="157.9,194.9 161.6,218.7 158.8,220.1 146.1,199.9 148.9,198.7 157.7,212.5 155.2,196 		"/>
		<polygon class="st1" points="181.4,208.4 170.7,214.1 159.1,194.2 169.3,188.7 170.6,191 162.8,195.1 166.4,201.3 173.5,197.5 
			174.8,199.7 167.7,203.5 171.9,210.6 180.1,206.2 		"/>
		<path class="st1" d="M193.5,199.9l-2.3,2l-8.3-6.8l-2.1,1.9l5.6,7.6L184,207l-13.7-19.2l4.4-3.1c1.4-1,3.2-1.7,4.9-1.5
			c4.3,0.5,6.1,3.4,5.9,6.7c-0.1,1.1-0.1,2.1-0.5,3.1L193.5,199.9z M178.8,186.4c-1.7-0.5-3.1,0.9-4.4,1.8l4.5,6c1.4-1,2-1.2,3.1-3
			C182.5,189,181.6,187.1,178.8,186.4"/>
		<path class="st1" d="M200.9,181.3c4.8,2.9,3.7,11-2.6,11.9c-1.7,0.3-3.7-0.3-4.5-0.8l1.1-2.4c1,0.2,2.1,0.6,3.1,0.4
			c4.1-0.8,3.9-5,1.5-6.7c-0.8-0.6-2-0.7-3-0.6c-2.7,0.3-4.5,2.3-7.5,2.5c-3.3,0.2-5.6-1.8-6.2-5.1c-0.3-1.7,0.1-3.4,1-4.7
			c1.8-2.8,5.5-3.1,8.2-1.5l-1.1,2.5c-1.5-0.8-4.1-0.8-5.1,0.8c-0.5,0.8-0.7,1.6-0.5,2.5c0.3,1.8,1.6,2.9,3.4,2.7
			c3-0.4,5-2.8,7.9-2.7C197.9,180.2,199.5,180.5,200.9,181.3"/>
		<polygon class="st1" points="211,178.4 209.3,180.5 189.6,168.2 191.3,166.1 		"/>
		<polygon class="st1" points="201,153.5 198.9,157.6 217.4,168.5 216.2,170.8 197.6,159.9 195.4,163.9 193.1,162.5 198.7,152.2 		
			"/>
		<polygon class="st1" points="204.4,138.2 215.8,148.3 223.3,151.6 222.4,154.1 215.4,151.4 199.3,151 200.1,148.4 211.3,148.6 
			203.3,141.3 		"/>
		<path class="st1" d="M49.3,194.8c-2,2-3.9,3-5.6,3.1c-1.7,0.1-3.3-0.6-4.7-2.1c-1.3-1.3-1.9-2.8-1.9-4.6c0-0.9,0.3-1.8,0.8-2.7
			l2.6,1.6c-0.2,0.4-0.3,0.9-0.3,1.3c0,0.9,0.3,1.7,0.9,2.4c0.9,0.9,1.8,1.3,2.7,1.2s2.1-0.8,3.5-2.1l11.3-11.2l2.1,2.1L49.3,194.8z
			"/>
		<path class="st1" d="M87.9,190.9L80,186l0.7-1.2l3,1.8l4.7-8.2l-3-1.8l0.6-1.1c1.1,0.7,2,1.1,2.7,1.2c0.7,0.1,1.2-0.2,1.7-0.8
			l1.7,1L85.8,188l2.9,1.8L87.9,190.9z M111.6,185.9c0.1-0.6-0.1-1.2-0.7-1.7s-1.4-0.8-2.6-1c-1.1-0.1-2-0.1-2.7,0.2
			c-0.8,0.3-1.2,0.7-1.3,1.4c-0.1,0.5,0,0.9,0.3,1.2c0.3,0.4,0.7,0.7,1.4,1.1c0.3,0.1,0.7,0.4,1.3,0.6c0.6,0.3,1.1,0.5,1.6,0.7
			c0.9-0.3,1.6-0.7,2-1.1C111.2,186.9,111.4,186.5,111.6,185.9 M110.5,193c0.1-0.6,0-1.1-0.2-1.5c-0.3-0.4-0.9-0.8-1.8-1.3
			c-0.3-0.2-0.7-0.3-1.2-0.6c-0.5-0.2-1.1-0.5-1.8-0.8c-0.9,0.2-1.6,0.6-2.1,1s-0.9,1-1,1.6c-0.2,0.9,0.1,1.6,0.8,2.3
			c0.7,0.7,1.6,1.1,2.8,1.3c1.2,0.2,2.3,0.1,3.1-0.3C109.9,194.4,110.4,193.8,110.5,193 M105.6,196.5c-1.1-0.1-2.1-0.4-2.9-0.7
			s-1.5-0.7-2.1-1.2c-0.5-0.5-0.9-1-1.1-1.5c-0.2-0.6-0.2-1.1-0.1-1.7c0.2-0.8,0.6-1.4,1.4-2s1.8-0.9,3-1.1v-0.1
			c-1-0.6-1.7-1.1-2.1-1.7c-0.4-0.6-0.5-1.2-0.4-1.9c0.2-1.1,1-1.9,2.4-2.4s3-0.7,4.9-0.4c2,0.3,3.5,0.8,4.6,1.7
			c1.1,0.8,1.5,1.8,1.3,2.8c-0.1,0.6-0.5,1.2-1.2,1.8c-0.7,0.5-1.6,0.9-2.8,1.1v0.1c1.2,0.6,2.1,1.2,2.6,1.8s0.7,1.4,0.6,2.3
			c-0.2,1.2-1.1,2.1-2.6,2.7C109.4,196.6,107.6,196.8,105.6,196.5 M133.1,187.8c0-1-0.1-1.8-0.4-2.4c-0.3-0.6-0.6-1.1-1.1-1.4
			c-0.4-0.3-0.8-0.5-1.3-0.6c-0.4-0.1-0.9-0.2-1.4-0.2c-1.2,0-2.1,0.3-2.8,0.8c-0.7,0.6-1.1,1.4-1.1,2.4c0,0.6,0.1,1.1,0.3,1.5
			c0.2,0.4,0.6,0.7,1.1,1c0.4,0.2,0.8,0.3,1.2,0.4c0.5,0.1,1,0.1,1.5,0.1c0.6,0,1.3-0.1,2-0.2c0.7-0.1,1.3-0.3,1.8-0.6
			c0-0.1,0-0.2,0-0.4C133.1,188.2,133.1,188,133.1,187.8 M122.1,186.6c0-0.7,0.2-1.4,0.5-2c0.4-0.6,0.9-1.1,1.5-1.6
			c0.6-0.4,1.3-0.8,2.2-1c0.9-0.2,1.7-0.4,2.6-0.4c1,0,1.9,0.1,2.7,0.3s1.5,0.5,2.1,1c0.7,0.5,1.3,1.2,1.7,2.1
			c0.4,0.9,0.6,1.9,0.6,3.2c0,1.2-0.2,2.3-0.6,3.4c-0.4,1.1-1,1.9-1.8,2.6c-0.8,0.7-1.8,1.3-3,1.7s-2.6,0.6-4.3,0.6
			c-0.4,0-0.8,0-1.2,0c-0.4,0-0.8-0.1-1.2-0.2v-1.8h0.1c0.2,0.1,0.6,0.2,1.1,0.3s1,0.1,1.5,0.1c1.9,0,3.4-0.4,4.4-1.2
			c1.1-0.8,1.7-2,1.8-3.5c-0.8,0.3-1.5,0.6-2.2,0.8s-1.4,0.2-2.3,0.2c-0.8,0-1.5-0.1-2.2-0.2c-0.7-0.1-1.3-0.3-2-0.7
			c-0.8-0.4-1.3-0.9-1.7-1.5C122.3,188.1,122.1,187.4,122.1,186.6 M153.2,174.4l-0.5,14.7l-2.3,1.4l0.2-13.9l-8.6,4.2l-0.8-1.7
			l10.8-5.6L153.2,174.4z"/>
		<g>
			<path class="st1" d="M157.9,55.2c-1.7-0.8-0.5-1.1-0.4-2.8c0.1-1.4-0.8-3-0.5-4c0.8-2.7,4.2-1.6,6-0.3c0.3,0.2,0.6,0.9,0.9,1.6
				c0.6,1.6,1.2,3.9-0.6,5C161.7,55.8,159.4,56,157.9,55.2"/>
			<path class="st1" d="M137.9,47.4c-0.1,0-0.1-0.1-0.2-0.1c0.1-0.2,0.1-0.4,0.2-0.6c0.6-0.1,6.4-2.1,6.4-2.2
				c1.7-0.8,3.3-1.8,4.2-3.5c-3.8,0.3-7.8,2.1-11.6,1.4c-1.6-0.8-2.5-2-3.6-2.9c0-0.1,0-0.1,0-0.2c-1.6-1.7-1.4-3.4,0.9-3.6
				c3.5,1.7,9.8,0.5,13.6,0c0.9-0.2,3.3-0.4,4.1-1c2-4.7,2.7-9.7,4.1-14.3c2-3.1,3.6-0.3,5.2,1.9c0.1,0.3,0.5,0.7,0.7,1.5
				c0.1,0,0.1,0,0.2,0c0.5,1.6,0.6,2.3-1.1,3.3c-1.5,2.1-2.5,4.5-3.1,7.2c2.6,0.3,4.7-1.6,7.7-0.9c0.4,1.5,0,2.7-1.6,3.5
				c-2.4,0.5-5,0.9-7.7,1.4c-1.2,2.3-2.9,5.1-5.1,6.7c-0.3,0.2-1.9,1.1-2.2,1.2c-1.8,0.5-3.5,1.3-5.3,1.4
				C138.8,47.7,138.8,47.5,137.9,47.4"/>
		</g>
		<g>
			<path class="st1" d="M79.8,64.4c-2.1-0.1-4.6-1.6-6.1-2.6c0-0.5-0.1-1.1,0-1.6c3-4.8,6-9.4,8.3-14.7c0.5-2.2,1.2-4.7,1.8-7
				c0-0.1,0.1-0.1,0.2-0.2c0-0.1-0.1-0.1-0.1-0.2c0.8-1.3,1.1-1.7,2.6-0.6c0.5,1.1-1.1,3.2-1.3,4.5c0,2.4-0.1,4.9-0.3,7.4
				c-0.2,0.5-0.2,0.5-0.7,3.3c-0.8,1.3-1.4,4.2-1.5,5.9c-1,1.3-0.7,3.9-2,5.3C80.4,64,80.1,64.2,79.8,64.4"/>
			<path class="st1" d="M98.9,39.7c-2.6,0.9-4-0.5-6.1-1.4c-0.3-0.7-0.1-1.3-0.2-1.7c0.6-0.4,0.6-0.4,0.9-0.8c1-0.6,1.5-0.7,2.6-1.2
				c1.4-0.9,4.2-5.1,5.9-4.5C103.5,33.2,101.3,37.7,98.9,39.7"/>
			<path class="st1" d="M76.9,42.6c-1.3-0.5-3.1-4.4-3.7-5.7c-0.2-2.5,2.1-3.5,4.5-2.8c2.3,1.4,3.6,1.8,3,4.7
				C79.6,41.1,78.8,41.5,76.9,42.6"/>
			<path class="st1" d="M95.4,33.1c-0.8-1.1-0.1-4.4-0.8-4.8c-0.6,0.3-1.2,0.8-1.8,1.1c-1.9-0.1-4.3-1.4-4.3-3.1
				c0.6-1.8,0.3-1.3,2.1-2.1c1.4-1.4,2.9-2.9,4.3-4.3c2.7-1.7,4.7-0.6,6,2.2c0.2,2.1-0.4,4-1.1,5.9c-1.2,1.5-2.3,2.9-3.3,4.4
				C96.1,32.6,95.8,32.9,95.4,33.1"/>
			<path class="st1" d="M76.2,31.1c-0.8-0.3-0.7-0.7-0.6-1.4c-0.6-1.2-1.7-1.9-2.2-3c-0.4-2.3-1.2-2.9,0.2-4.6
				c1.6,0.1,7.3,0.6,7.2,3.7C80.2,28,78,30.1,76.2,31.1"/>
		</g>
		<path class="st1" d="M46.9,109.7c-2.5,1.7-8.4,0.6-7.6-3c-0.3-0.3-0.5-1-0.4-1.4c-0.1-0.1-0.1-0.1-0.2-0.1
			C38,101.5,36,98,34.9,94.4c-0.6-1.1-1.3-2-0.8-3.2c0.8-0.2,1.7,0.7,2.4,1.4c0.4-0.1,0.8-1,0.9-1.6c-0.3-2.5-0.1-5.3-0.4-7.8
			c-0.6-0.5-1.3-1.1-1.9-1.7c-0.5,1.3-2.1,5.4-3.5,3.2c0.4-1.7,0.6-4.5-0.3-6.2c-1.2-1.3-3-2.3-3.5-3.7c0.3-2,3.4-2.5,5.2-1.7
			c1.5,0.1,1.5-2.6,3.1,1.9c0,0.8,0.8,1.2,1.6,1.6c0.1-0.2,0.3-0.3,0.4-0.5c0-2-0.1-4.1,0.1-6.2c-1.8-1.8-3.4-3.4-4.4-5.6
			c0-2.1,2.4-3.4,4.5-4c0.7-1.1,0.7-2.1,0.7-3.6c0.1-0.5,0.1-0.5,0.6-1.2c0.7,0.1,1.3,0.3,2.1,0.8c1.7,2.2-1.8,8.8,1.5,9.3
			c0.7-1.1-0.3-2.3-0.8-3.2c0.2-1.6,2.7-3.7,4.5-4.3c2.7-0.2,2.5,1.3,2.5,3.5c0.1,0.3,0.2,0.6,0.4,0.9c3.4,2.5,3.4,2.5,8,5.6
			c0.9,1.4,1.2,2.2,1.6,3.9c0.1,0,0.1,0.1,0.2,0.1c0,0.1-0.1,0.1-0.1,0.2c0.6,1.3,0.7,3.5-0.9,3.7c-3.8-2.6-7.6-5.5-11.4-7.9
			c0,0.1-0.1,0.2-0.1,0.2c1.7,1.6,3.9,5.8,3.9,8.2c-0.9,1.5-2.6,2.2-4.1,1.7c-0.3-0.4-0.2-0.8-0.2-1.2c-1.1-2-4.4-3.9-6.1-5
			c-0.6,1.3,0.7,5.2,1.1,6.8c0.1,0.9,0.1,1.9,0.2,2.8c1.1,1.4,2.3,2.7,3.6,4.1c0.5,0.8,0.9,1.6,1.4,2.4c0,0.1-0.1,0.1-0.1,0.2
			c0.5,1.2,1.8,4.7-0.5,4.7c-0.2-0.1-0.4-0.3-0.6-0.4c-0.7-1.8-2.1-3.8-3.6-4.8c-0.5,1.8,0.1,3.7-0.8,5.2c-0.7,0.7-1.6,1.4-2.3,1.8
			c-0.1,0-0.1-0.1-0.2-0.1c-0.5,0.2-1,0.3-1.1,0.6c0.6,0.8,1.3,1.7,2,2.5c2.1,3.7,4.5,6.9,7.2,10.3C47.2,108.8,47.1,109,46.9,109.7"
			/>
		<path class="st1" d="M30.7,94.4c-1,0-1.5-1.1-2.2-1.7c-2.7-0.8-4.6-1.3-5.5-3.9c0.1-0.2,0.2-0.5,0.4-0.7c1.4-0.5,4-0.8,5.7-0.9
			C32.3,87.9,31.2,92,30.7,94.4"/>
		<path class="st1" d="M23.7,86.6c-0.6,0.4-0.7,0.3-0.9,0.3c-0.4-0.6-0.5-1.1-1.1-1.3c-2.9-0.1-6-2.3-5.4-5.3
			c0.5-0.6,1.1-0.2,2.2,0.1c2.5-0.5,6.2-2,6.3,1.9C24.6,83.7,24.1,85.2,23.7,86.6"/>
		<path class="st1" d="M175,90.3h-29c-8.5,0-12.8,8.3-16,15.8l-4.9-11l8.2-3c-4.8-4.5-19.8-7-21.8-0.2l-3.5,14.2
			c-2.8-6.4-6.7-15.8-15.6-15.8H63c3.8,6.8,7.5,9.2,21,8.6l1.8,4.7L71,103.7c4.4,8.1,6.9,8.4,18.9,8.1l2.5,5.6l-11.7,0.4
			c2.5,5.7,5.1,8.2,15.2,7.7l2,5l-9.3,0.1c3.5,5.8,5.2,8.4,12.6,7.7l2,5.4h-6.4c2.8,6.2,6,6.5,10,7.1c3.6,0.5,4.1,7.2-0.1,9.3
			l12.5,20.3l12.5-20.3c-4.2-2.1-3.6-8.8-0.1-9.3c4-0.6,7.2-0.9,10-7.1h-6.4l2-5.4c7.4,0.6,9.1-2,12.6-7.7l-9.3-0.1l1.9-5
			c10,0.5,12.7-2,15.2-7.7l-11.7-0.4l2.5-5.6c11.9,0.3,14.5,0,18.9-8.1l-14.8-0.1l1.8-4.7C167.5,99.5,171.2,97.1,175,90.3"/>
		<path class="st1" d="M219.2,76.4l0.1-0.3c0.4-1,0.4-1.5,0.3-1.6c-0.1-0.2-0.6-0.4-1.3-0.6c-0.2,0-0.4-0.1-0.7-0.1l-0.4-0.1
			l-0.1-0.3c-0.1-0.1-0.3-0.3-0.5-0.4l-0.6-0.2l-0.1-0.1l0.7-0.5c0.5-0.4,1.1-0.6,1.7-0.8l0.1-0.2l0.3,0.1c1-0.9,1.7-2.2,1.8-3.5
			c-0.3-0.4-0.8-0.6-1.6-0.6c-1,0-2.3,0.4-3.4,0.7c-0.7,0.2-1.5,0.5-2.3,0.6l-0.3-0.1c-1.9-0.9-1.9-0.9-5.8-3
			c-0.3,0.2-0.5,0.5-0.6,0.8c-0.2,0.6-0.2,1.2,0.1,1.8l0.4,0.3l0,0l0,0l-0.9,0.5c-0.2,0.1-0.3,0.1-0.2,0.1l0,0l-0.3,0.2
			c0,0.1,0.1,0.3,0.2,0.5l0.1,0.4c0,0.4-0.1,0.5-0.4,0.8l-0.1,0.4v0.1l0,0l-0.6-0.4c-0.7-0.6-0.8-0.6-1.4-1.2c-0.1,0-0.3,0-0.5,0
			c-0.4,0-0.8,0.1-0.9,0.4c-0.2,0.2-0.1,0.5,0,0.9l-0.1,0.2c-0.1,0.6-0.6,1.5-2.3,1.5h-0.9c-0.2,0-0.3,0-0.6,0.1
			c0,1.2,0.5,1.3,1.7,1.5c0.5,0.1,1,0.2,1.6,0.3c0.1,0,0.2-0.1,0.3-0.1c0.3,0,0.5,0.1,0.7,0.2l0.9,0.4l0.3,0.1l0.2,0.1l-1.1,0.6
			c-0.4,0.2-0.7,0.4-1.1,0.8c-0.1,0.3-0.2,0.6-0.5,0.9v0.3l-0.5-0.1c-0.8-0.2-1.7-0.4-2.5-0.6l-1.3-0.3c-2.3-0.6-5.1-1.3-7.8-1.8
			c-0.6-0.2-1.2-0.3-1.9-0.5l-1.3-0.1l-0.1,0.4c0.3,0.2,0.7,0.5,1.4,1l0.1,0.2c0.4,0.9,1,2,2.3,2.7c0.9,0.2,1.9,0.3,3,0.4
			c3.3,0.4,6.7,0.8,9.4,2.8l0.7,0.4h0.2l0,0l0,0l-1,0.5c-0.2,0.1-0.5,0.3-0.8,0.5l-0.3-0.1c-3.2-0.7-3.2-0.7-4.4-1.1
			c-1.2-0.7-1.7-1-2.3-1c-0.5,0-1,0.2-1.9,0.7c-0.1,0-0.1,0-0.1,0.1l0,0c0,0-0.1,0-0.1,0.1l-0.3-0.1c-0.4-0.1-0.4-0.1-1.3-0.3
			c-0.9-0.3-1.8-0.6-2.8-0.9c-2.8-0.9-5.6-1.8-8-3.4c-0.7-0.6-1.2-1.1-1.6-1.6c-0.1-0.1-0.2-0.2-0.3-0.2l0,0l-0.2-0.3
			c-0.2,0.1-0.5,0.3-0.9,0.8c-0.5,1.6,0.9,5.3,2.2,6.4c0.9,0.4,1.8,0.6,2.9,0.8c1.7,0.3,3.4,0.6,5.1,2l0.4,0.1l0,0l0,0l-0.4,0.6
			c-0.5,0.7-1.2,1.3-1.9,2l-0.3,0.3c-0.2,0.2-0.4,0.3-0.6,0.5h-0.3c-0.2,0-0.4,0.1-0.7,0.1c-1.2,0-2.3-0.6-3.2-1.1
			c-0.3-0.2-0.6-0.3-1-0.4l-0.2,0.3c1.3,2.2,3,4.2,5.4,6.2l0.2,0.3c0.3,0.2,0.6,0.2,0.9,0.2l0,0c1.7,0,3.5-2.3,4.8-4
			c0.3-0.4,0.6-0.7,0.9-1l0.3-0.2c1.3-0.9,1.4-1,1.3-1l0.3,0.1c1.1,0.3,1.8,0.7,2.8,1.3c1-0.4,2-1.4,1.9-2.5l-0.4-0.4
			c-0.6-0.6-1.2-1.1-1.8-1.7l-0.3-0.1l0.2-0.5c0.2-0.5,0.5-0.9,1-1.3v-0.2l0.4,0.1c1.8,0.4,3.4,0.9,5.4,1.5l1.7,0.6l0.4,0.3
			c1,0.7,1.7,1.3,2.8,1.3c0.2,0,0.3,0,0.6-0.1c1.1-1.1,1.7-1.8,2.1-2.7l0,0c0,0,0,0,0-0.1c-0.3-0.5-0.5-0.6-0.5-0.6l0.3-0.4
			c0.1-0.1,0.2-0.2,0.5-0.4c2.9-0.9,6.1-2.1,8.4-2.9c1.4-0.9,1.5-1,1-2.3C219.5,77,219.3,76.8,219.2,76.4 M207.8,78.2l0.5-0.4
			c0.6-0.6,0.9-0.9,1-1.2c0-0.1-0.2-0.3-0.5-0.5h-0.1c-0.1,0-0.2,0-0.3,0c-0.5,0-0.8-0.2-1-0.5l-0.2-0.2v-0.2l0.2-0.6h-0.1l0.6-0.2
			c2.1-0.7,2.1-0.7,2.5-0.9l0.2-0.3l0.4,0.3c0.4,0.4,1.9,1.7,2.2,3.5l-0.2,0.2c-1.1,1.4-2.7,1.6-4.2,1.6l-0.4,0.1l-0.2-0.6
			L207.8,78.2L207.8,78.2z"/>
		<path class="st1" d="M195.4,73c-0.6,0-1.3-0.2-1.8-0.6c-0.4-1.4,0.7-2.9,1.4-4c0.3-0.4,0.5-0.7,0.6-0.9l0.1-0.3l0.3-0.5
			c0.3-0.6,0.6-1.2,0.9-1.8c0.1-0.3,0.2-0.7,0.3-1c0.5-1.8,0.8-2.9,1.7-3.3c0.7,0.1,1.1,0.2,1.2,0.5c0.2,0.3,0.1,0.6,0,1.3l-0.1,0.3
			c0.1,0.2,0.1,0.5,0.2,0.9c0.2,1.1,0.3,2.2,0.1,3.2l-0.1,0.4c-0.1,0.4-0.2,0.7-0.3,1.1c-0.4,1.3-0.9,2.7-1.8,3.6l-0.4,0.4l-0.3,0.2
			C196.9,72.8,196.2,73,195.4,73L195.4,73z"/>
		<path class="st1" d="M195.4,73L195.4,73c0.7,0,1.4-0.2,2-0.6l0.2-0.1l0.4-0.4c0.9-0.8,1.4-2.3,1.8-3.6c0.1-0.3,0.2-0.7,0.3-1.1
			l0.1-0.4c0.1-1.1,0-2.2-0.1-3.2c0-0.3-0.1-0.6-0.1-0.9l0,0l0.1-0.2c0.1-0.6,0.2-1,0-1.3c-0.2-0.2-0.5-0.3-1.2-0.5
			c-0.9,0.3-1.2,1.4-1.6,3.1c-0.1,0.4-0.2,0.7-0.3,1.1c-0.3,0.7-0.6,1.2-0.9,1.8l-0.3,0.5l-0.1,0.3c-0.1,0.3-0.3,0.5-0.6,0.9
			c-0.7,1.1-1.8,2.6-1.5,3.9C194.2,72.8,194.8,73,195.4,73"/>
		<path class="st1" d="M189,71.4c-0.3,0-0.7-0.2-1.5-0.6c-1-2.2,2.5-4.7,2.9-5c0.6,0.1,0.9,0.4,1.1,1c0.4,1.1,0.1,2.7-0.6,3.6
			C189.9,71.1,189.5,71.4,189,71.4L189,71.4z"/>
		<path class="st1" d="M189,71.3L189,71.3c0.4,0,0.8-0.3,1.9-1c0.7-0.9,1-2.5,0.6-3.5c-0.2-0.5-0.5-0.8-1-1
			c-0.4,0.3-3.9,2.8-2.9,4.9C188.3,71.2,188.7,71.3,189,71.3"/>
	</g>
</g>
</svg>
